<svg xmlns="http://www.w3.org/2000/svg" xmlns:xlink="http://www.w3.org/1999/xlink" id="Слой_1" x="0" y="0" enable-background="new 0 0 1597.181 1663.599" version="1.1" viewBox="0 0 1597.181 1663.599" xml:space="preserve"><g><polygon fill="#FFF" points="1286.817 1414.217 1319.632 1184.489 1454.71 1113.888 1529.809 1130.974 1561.405 1179.14 1561.405 1240.385 1532.494 1341.028 1474.624 1455.358 1424.843 1499.758 1379.158 1501.032 1339.066 1481.052"/><polygon fill="#FFF" points="1024.174 589.282 1180.323 934.613 1184.187 1002.716 1219.984 1120.639 1167.811 1428.405 1116.252 1458.916 1077.697 1486.456 995.874 1536.258 969.052 1576.272 896.381 1601.174 755.511 1601.174 360.493 1370.13 341.103 872.721 410.036 680.811 835.544 664.667"/><polygon fill="#FFF" points="714.34 52.243 566.594 59.849 285.513 292.086 253.785 351.993 239.226 444.99 285.513 564.608 410.036 680.811 654.843 680.811 840.863 669.987 1010.977 608.601 1054.747 508.14 1054.747 398.446 959.503 218.941 814.082 84.885"/><path fill="#2B353E" d="M1512.2385,1315.6888c-0.1001-2.2375-0.7434-4.2468-1.7377-5.9977 c1.9131-1.8469,2.5093-4.962,0.1074-7.4503c-11.6782-12.1086-25.764-17.3818-42.4326-14.9763 c-5.5034,0.7942-10.8729,2.0867-16.1611,3.6639c-2.9393-1.7112-6.6995-2.1283-10.6332-0.1888 c-3.577,1.764-7.3014,3.462-11.0917,5.1488c-2.147-1.1433-4.7202-1.4263-7.4862-0.2925 c-18.6986,7.6711-35.118,17.993-48.0795,32.9825c-0.0642,0.0698-0.1227,0.1453-0.1869,0.2151 c-0.4772,0.5565-0.9601,1.1073-1.428,1.6753c-1.8358,2.1339-3.5811,4.3583-5.1355,6.7694 c-3.5376,5.4882-1.502,10.6652,2.4902,13.548c-1.0867,2.7092-1.9205,5.4846-2.5619,8.3014 c-4.0867,1.5073-7.5524,5.1204-8.2411,10.6953c-3.9978,32.3694,17.5385,87.1183,54.2094,90.1293 c1.2886,0.3038,2.6375,0.3605,4.0166,0.1207c1.9885-0.0414,4.0148-0.2338,6.0808-0.5885 c5.5013,8.786,20.8115,9.9143,24.3962-2.9979c1.0396-3.7432,2.0903-7.4977,3.1414-11.2595 c10.2068-9.3278,18.1532-21.8834,24.2944-34.4185c3.3374-0.6564,6.3843-2.7977,8.3011-6.8917 C1497.1509,1376.0071,1513.6554,1347.4827,1512.2385,1315.6888z M1459.1688,1312.2192c-0.1511-0.6188-0.3472-1.2035-0.5774-1.7601 c0.6056-0.1943,1.2133-0.3849,1.8206-0.5699C1459.9875,1310.661,1459.5819,1311.442,1459.1688,1312.2192z"/><path fill="#2B353E" d="M1473.196,1200.1256c-0.5265-1.9941-1.2584-3.8148-2.147-5.4827c0.1774-0.734,0.2848-1.4847,0.234-2.2507 c-0.468-7.0164-4.8469-12.7821-11.969-14.0745c-3.8451-0.6981-7.7014,0.6622-9.5559,4.0035 c-7.4371,0.7772-14.3121,8.8314-10.4332,16.0781c-5.262,8.2484-5.5732,22.4833-2.7905,29.3544 c1.7867,4.4148,4.0055,8.6918,7.043,11.7689c-0.0338,0.2736-0.0773,0.5471-0.1094,0.8207 c-0.2642,2.2998,1.1453,4.9807,2.7111,6.5468c1.8566,1.8564,4.0092,2.4791,6.5468,2.7111 c3.6525,0.3339,7.0428-0.8622,9.7766-3.2676c0.8698-0.7661,1.6395-1.7434,2.1169-2.8057c0.864-1.9224,1.0679-2.5732,1.2603-3.8789 c-0.0265,0.2058-0.0547,0.4114-0.0831,0.6188c0.0397-0.2828,0.0812-0.5621,0.1396-0.8413 c0.0358-0.1737,0.0887-0.3396,0.1227-0.5131c0.0472-0.234,0.0812-0.4323,0.1169-0.6302c3.1432-3.7488,5.2355-8.7107,6.4562-12.8595 C1474.9996,1217.3846,1475.343,1208.2439,1473.196,1200.1256z"/><path fill="#2B353E" d="M1381.6216,1255.7988c-0.4244-4.4316-3.1205-7.3164-6.4091-8.6786 c0.9359-5.0016-5.9486-9.2465-9.5615-4.9827c-11.7159,13.8217-15.9403,35.3655-12.7518,52.8566 c1.215,6.6655,11.301,9.337,15.6442,4.1299C1378.7086,1286.9399,1383.131,1271.5656,1381.6216,1255.7988z"/><path fill="#2B353E" d="M935.3297,1398.7319c0.6152-1.8057,1.0641-3.5809,1.1885-5.2638 c0.6152-8.3503,1.2189-16.6309-0.132-24.9492c-3.0016-18.4572-16.5195-21.3682-32.7221-17.3553 c-8.0467,1.9941-15.7064,5.2432-23.5267,7.9427c-9.4048,3.2471-19.7795,1.3076-29.4506,0.2 c-22.1135-2.5298-43.9892-1.1752-64.7519,7.36c-28.179,11.5803-51.5133,36.6256-50.7076,68.5912 c0.5906,23.3455,13.601,39.3311,30.2224,52.0529c0.2585,4.228,2.4565,8.4296,7.3334,11.4407 c26.3207,16.2534,55.377,29.9808,86.5219,32.741c27.2548,2.4169,56.2734-8.6824,70.4553-32.6882 C946.493,1470.4812,944.7856,1431.7238,935.3297,1398.7319z"/><path fill="#2B353E" d="M969.0292,1305.8915c-0.6622-9.8483-2.3811-21.1721-8.7012-29.0867 c-2.6734-3.3469-8.9164-1.4772-9.7126,2.5641c-1.6754,8.4974,0.3416,17.8835,0.4623,26.5226 C951.238,1317.5265,969.8027,1317.3755,969.0292,1305.8915z"/><path fill="#2B353E" d="M879.3167,1210.2777c-7.4314-9.6031-18.876-18.8949-31.8504-17.5779 c-11.8368,1.2017-20.1986,8.022-25.998,17.1741c-3.2036-0.9414-6.7712-0.432-9.2654,2.3698 c-13.0481,14.6593-14.2443,34.4843-12.0464,53.1659c0.2679,22.0493,8.0938,42.6459,30.4469,52.2018 c39.3085,16.8026,63.9028-23.236,65.6838-57.5259C897.2607,1241.3339,890.6235,1224.8879,879.3167,1210.2777z"/><path fill="#2B353E" d="M751.6375,1323.162c-0.7623-2.749-2.7375-4.5337-5.0487-5.3583 c0.1509-6.7825-0.3717-13.5253-0.7359-19.1174c-1.1055-16.9005-3.3959-36.1898-12.1066-51.0925 c-3.6054-6.1655-14.114-5.3882-15.7215,2.0547c-0.2566,1.1904-0.4755,2.3848-0.6981,3.5771 c-3.0563-2.9755-9.4446-1.8793-10.5709,2.8394c-5.1863,21.7097-9.1483,48.7623-0.9188,70.3307 c-0.5923,2.7054-0.9735,5.4525-1.0603,8.2352c-0.5036,15.9611,15.2272,24.8057,29.5242,21.8324 c1.6093-0.334,2.8622-1.0791,3.8016-2.0641c1.9376-0.017,3.8809-0.7018,5.4034-2.2035 C751.0148,1344.7866,754.5221,1333.5554,751.6375,1323.162z"/><g><path fill="#26313C" d="M217.6746,1299.2393c0.0187,0.0226,0.0321,0.0488,0.0491,0.0717 C217.8217,1299.4409,217.8311,1299.4523,217.6746,1299.2393z"/><path fill="#26313C" d="M232.6037,1348.1469c-1.5413-8.4146-4.3279-16.2611-8.2861-23.37 c0.9225-3.911,0.0452-8.1522-3.5621-11.3783c-0.0962-0.085-0.2-0.1624-0.2962-0.2473c2.2281-3.9242,1.5508-8.8956-1.6151-12.3312 c-0.1207-0.1263-0.2301-0.2621-0.347-0.3923c-0.0133-0.0189-0.0153-0.0226-0.0303-0.0435 c-0.2245-0.3734-0.4754-0.7301-0.7432-1.0734c-0.2434-0.3226-1.0831-1.4434-1.6226-2.1565 c-0.5357-0.7699-1.0262-1.5735-1.4754-2.3981c-0.3545-0.6528-1.7357-3.5016-0.5394-0.5564 c-0.5962-1.4679-1.4001-2.7697-2.4132-3.8187c-0.381-2.2375-1.4677-4.4845-2.1715-6.724 c-0.051-0.7585-0.2245-1.4923-0.5019-2.1885c0.1341-0.7452,0.2133-1.5302,0.2133-2.3678 c-0.0056-14.4895-0.0114-28.9772-0.0151-43.4667c0-0.9037-0.0906-1.7489-0.2434-2.547c0.0321-1.7451,0.0811-3.4883,0.1358-5.2317 c0.0302-0.3037,0.051-0.6113,0.0811-0.9149c0.0736-0.7245,0.068-1.4114,0.0131-2.0734c0.7057-17.795,2.8-35.4371,8.3222-52.651 c2.9978-9.3446-6.3582-16.7458-14.9462-14.946c-7.4635,1.5641-14.7932,3.6676-21.7889,6.4901 c-3.0733-1.2037-6.6372-1.251-10.069,0.5659c-1.0187,0.5396-2.0206,1.1132-3.0148,1.6981 c-3.0376,0.6696-5.2129,2.2432-6.6128,4.2788c-6.5825,4.6129-12.818,9.8861-19.2817,14.7179 c-3.1394-10.0804-4.9034-19.1099-3.4317-30.5242c1.381-10.7181-15.5838-14.7142-20.1458-5.4564 c-4.2676,8.6655-9.4597,16.6858-14.9856,24.5172c-3.0867,3.3621-5.9977,6.8541-8.4974,10.6841 c-1.1188,1.3036-2.0206,2.8431-2.6848,4.9827c-3.7545,4.9751-7.2202,10.1747-10.6728,15.3593 c-1.4961,2.2469-1.7942,4.5902-1.2925,6.7355c-0.0037,0.0056-0.0093,0.0093-0.0131,0.015 c-2.5959,2.9978-4.696,6.2184-6.6034,9.5823c-0.8564,0.9358-1.5639,2.0433-2.0393,3.3337 c-0.1642,0.4453-0.3207,0.8999-0.4793,1.3508c-0.3734,0.7244-0.7451,1.4564-1.1149,2.1923 c-0.9227,1.8319-1.3017,3.5884-1.2641,5.2052c-0.5359,1.8604-1.032,3.7432-1.4866,5.6469 c-0.1039,0.2151-0.2094,0.4283-0.3134,0.6434c-1.0148,2.0886-1.3073,4.1147-1.079,5.9712 c-3.5356,19.2401-2.7696,39.9083,4.6279,57.6504c-0.2415,0.0228-0.4793,0.0549-0.7208,0.0719 c-10.1332,0.6754-13.3161,10.967-7.9787,17.8306c-0.8377,4.4188,0.5208,9.1522,5.1809,11.4993 c18.3439,9.2371,36.8992,18.5986,56.9374,23.5586c13.5668,3.3564,27.3508,3.9186,41.0478,2.6453 c7.7994,2.4581,15.8291,3.1581,23.6701,2.0223c2.2206,2.2509,5.2147,3.7074,8.6427,3.5997 c6.3485-0.198,13.6972-2.5507,19.7853-0.2697C226.8399,1367.5981,234.1828,1356.7726,232.6037,1348.1469z"/></g><path fill="#26313C" d="M1458.5822,1095.8672c-2.0359,0.5452-7.0902,0.5321-12.9048,0.7189 c-4.1659-4.1979-10.4747-5.692-16.7837-4.6318c-8.9617,1.5094-18.127,0.5981-27.281,0.5114c-2.53-1.7452-5.6826-2.7037-9.42-2.4073 c-7.66,0.6055-15.3159,1.0488-22.9532,1.63c-0.8999-0.1415-1.8298-0.2245-2.8073-0.2114 c-4.3789,0.0625-8.7654,0.3773-13.1198,0.9473c-13.2386,0.0999-26.449,0.9791-39.6858,1.1433 c-7.0468,0.0887-11.6898,3.8354-13.9386,8.7389c-5.745,1.0377-11.454,2.3508-17.1761,3.6338 c-2.1545-0.8867-4.6543-1.3811-7.5239-1.3301c-10.3145,0.1848-20.6326,1.4753-30.5128,4.5033 c-4.2205,1.2925-7.3448,3.7035-9.4371,6.6808c-5.0619,1.4678-10.0974,3.0243-15.0536,4.845 c-4.045,1.4846-7.041,3.7562-9.0995,6.4427c-9.1558,2.1793-18.0909,5.6185-25.4866,10.2578 c-21.444,9.3787-42.3876,24.1813-54.5941,42.8497c-3.6583,4.4316-6.8488,9.0861-9.5919,13.946 c-1.6754,1.1322-3.1394,2.7074-4.2336,4.7866c-8.1165,15.427-13.0216,32.3127-13.3972,49.7925 c-0.0565,2.6149,0.5435,4.8845,1.5925,6.7977c-0.8641,3.3413-1.5585,6.7428-2.0962,10.1992 c-6.2014,17.5308-7.9352,36.6671-6.9617,55.1299c0.0321,0.6018,0.1188,1.1791,0.2284,1.7451 c-0.4794,1.4301-0.7434,2.9961-0.7189,4.6941c0.0736,5.1505,0.6132,10.3049,1.5261,15.4158 c-0.6112,2.4375-0.6453,5.1752,0.1227,8.1578c11.7369,45.5439,52.3075,74.9474,93.1707,93.3027 c17.1213,7.6918,36.1106,8.337,54.545,10.2729c8.5616,0.8979,16.6119,1.9487,25.1962,4.0183 c3.8281,0.9244,7.3127,2.1168,9.1995,3.0245c1.6921,0.8148,3.2601,1.8394,4.8185,2.8789c-3.0223-2.015,2.9979,4.2677,0.7452,0.9585 c12.0613,17.6986,36.8878,6.3108,33.439-14.0972c-2.2697-13.431-6.7164-26.4338-10.4595-39.5612 c1.6262-1.9584,2.7732-4.3715,3.2054-7.2523c4.6731-31.0958,5.6675-62.3597,5.8145-93.6801 c0.1604-0.5547,0.3282-1.1113,0.485-1.6659c1.2113-4.3015,0.8867-8.2445-0.4679-11.6199 c-0.0112-8.9182-0.0527-17.8402-0.0717-26.7604c1.9338-10.4823,4.0468-20.9381,6.226-31.3806 c10.5085-12.8274,19.757-27.4508,22.5078-42.3309c0.3132-1.6924,0.4244-3.4772,0.3378-5.275 c0.5564-2.4564,0.9735-4.9583,1.2677-7.5015c0.1718-0.1735,0.3508-0.3302,0.5208-0.515c4.0846-4.4355,8.488-8.4994,13.0198-12.418 c6.0033,0.6774,12.4084,0.666,16.5138,1.4113c10.8635,1.9696,21.974-4.6694,21.9004-16.6818 c-0.0074-1.2716-0.0283-2.5488-0.0811-3.828c0.5035-1.7133,0.798-3.481,0.9132-5.2224c3.2487-2.1375,5.4692-2.8092,8.9087-4.0184 c8.9729-3.1564,18.0308-5.5355,26.7981-9.2937c4.5146-1.9357,7.2787-6.6637,8.1937-11.5991 c0.0847-0.0679,0.1547-0.1584,0.2395-0.2301c5.8976,1.3148,12.6067,1.5942,18.125,1.4451 C1482.7821,1122.6803,1478.1881,1090.609,1458.5822,1095.8672z"/><path fill="#26313C" d="M1004.4831,1207.2421c-0.7546-1.4659-3.1489-4.3035-6.0864-6.873c0-0.0868,0.017-0.1604,0.0151-0.2471 c-0.2-7.641-4.9166-14.516-9.8256-20.0118c-0.8112-0.9093-1.6885-1.7319-2.5959-2.5111c0.4772-2.4207,0.4205-4.9601-0.3171-7.4449 c-2.9054-9.8105-10.1161-17.8704-18.6232-23.3282c-5.4487-3.4979-12.3254-6.4639-18.9758-6.4393 c-19.7987-16.1024-42.8121-26.7772-64.6953-39.6328c-1.3527-0.7943-2.6943-1.3754-4.0167-1.7942 c-0.3962-0.2284-0.7886-0.4679-1.1868-0.6963c-4.2072-2.4036-8.2353-3.0035-11.8123-2.3621 c-4.3488-1.3527-9.2447-0.4603-13.2349,1.8829c-0.2169-0.068-0.4227-0.1509-0.6453-0.2133 c-18.5062-5.177-37.3746-8.2599-56.6147-8.4615c-6.8221-0.0719-11.9558,3.1545-15.1273,7.7616 c-1.8168-0.0642-3.6411-0.1074-5.4807-0.115c-2.7111-0.0094-5.092,0.4847-7.1711,1.3395h-0.5566 c-4.479,0-8.0786,1.3187-10.8237,3.4393c-7.1525,0.7679-14.2028,2.1376-21.374,3.079c-6.8014,0.8943-12.7651,3.6508-15.8498,9.5804 c-3.9657,1.1075-7.9485,2.1527-11.9709,3.0715c-6.0203,1.3754-10.369,6.2825-12.0236,11.9784 c-10.9823,5.8636-21.7155,12.2782-32.6147,18.1005c-4.7411,2.5321-7.1711,6.1713-7.8747,10.0239 c-0.1528,0.1018-0.3076,0.2037-0.4604,0.3075c-1.3416,0.5792-2.681,1.364-3.9941,2.3885 c-1.5206,1.1885-2.9941,2.4319-4.4431,3.7015c-0.6472,0.5-1.2961,0.9961-1.9358,1.5111c-0.9752,0.7869-1.7808,1.6377-2.4582,2.5262 c-5.7543,5.6072-10.9426,11.8104-15.7215,18.3308c-3.0753,3.2375-6.0844,6.5372-8.9277,9.9917 c-2.4244,2.947-3.9601,6.3524-4.1168,9.8655c-0.215,0.3584-0.4244,0.715-0.6375,1.0734c-0.4133,0.3547-0.819,0.7264-1.2094,1.1301 c-5.7071,5.8845-10.7653,12.2217-15.497,18.7968c-5.6675,0.1189-11.1633,2.9487-14.5272,9.5332 c-5.5487,10.8634-11.8992,21.2456-18.5157,31.4695c-3.7715,4.4865-7.0146,9.5258-9.8163,14.897 c-2.2205,4.2544-2.8318,8.3467-2.3036,12.0369c-26.7245,26.6792-57.3806,48.3889-97.1645,48.1097 c-4.2205,0-7.6957,1.1376-10.4633,2.9941c-2.5206,0.3225-5.0412,0.6359-7.5693,0.915c-5.4525,0.6036-10.4427,2.7676-13.9424,6.3278 c-3.1319,1.1528-6.1372,2.5017-8.9843,4.0525c-1.0245-0.4641-2.0733-0.9036-3.1734-1.2904 c-19.391-6.8127-42.1874,7.6843-45.8249,27.6018c-0.0678,0.3754-0.1093,0.7432-0.166,1.1149 c-5.1884,3.6659-7.7428,11.5219-3.9261,17.7177c-8.6825,2.0432-14.0934,13.333-6.4675,21.4607 c0.5906,0.6301,1.2036,1.2434,1.7981,1.8696c-0.8226,1.4301-1.4076,3.0017-1.6414,4.7242 c-0.2283,1.6791-0.4152,3.3223-0.583,4.9545c-0.0284-0.0039-0.0547-0.0076-0.0831-0.0115 c-0.002,0.3246-0.0056,0.6509-0.0075,0.9774c-0.3509,3.6921-0.5338,7.3051-0.5075,10.9124 c-3.9695,4.7052-4.6486,12.9198-0.0717,17.4874c0.1171,2.2507,0.2981,4.4996,0.5604,6.7334 c-0.1868,0.8226-0.3301,1.6639-0.4037,2.5281c-1.6169,19.1326,9.2935,36.8351,20.6041,51.2585 c12.6462,16.1272,28.015,29.8978,44.159,42.4347c2.4885,1.932,5.0016,3.8469,7.5278,5.7504 c6.7581,13.1633,21.8174,20.8986,35.9332,26.2473c5.5072,2.0865,11.1558,3.8921,16.8969,5.4977 c24.2869,10.1067,50.4472,14.9667,76.7964,14.3555c3.3073-0.0753,6.2108-1.0432,8.6747-2.5923 c13.3557-0.3037,26.6868-2.5734,39.7689-5.2638c37.218-7.6541,73.0117-13.9196,111.1088-14.197 c4.3998,0.5718,8.7126-0.6904,12.318-3.1279c1.5262,0.1754,3.0527,0.3452,4.5789,0.5319 c21.438,2.6321,26.1584-33.6125,5.0902-37.6067c-3.6224-0.6865-7.158-1.5677-10.6521-2.5959 c-2.7922-6.7126-6.4127-12.8745-10.6936-18.5892c-0.0245-0.0736-0.0396-0.1433-0.0659-0.2169 c-6.9221-19.4326-18.41-36.3992-32.0015-51.6718c-3.9846-7.4333-7.8674-14.912-11.4312-22.5454 c-2.9506-20.5627-7.2052-40.9763-11.9689-61.0127c-0.4244-1.7866-1.1564-3.4486-2.1054-4.9712 c3.7769-41.5101,11.3613-84.3091,1.5583-125.1532c1.0471-1.4207,1.8848-3.1431,2.4093-5.2242 c0.766-3.0393,1.5828-6.0635,2.3734-9.0955c4.0128-14.129,9.3069-27.9036,11.8122-42.4196 c0.1416-0.8187,0.2133-1.6093,0.2473-2.3848c0.9451-3.494,1.8583-6.9957,2.7828-10.4954 c3.6262-6.5072,7.5994-12.7821,12.1217-18.693c9.2503-7.7618,18.7666-15.2385,27.8527-23.2153 c2.0792,0.1001,4.1545,0.1095,6.2278,0.0604c1.3151,0.8037,2.7829,1.4546,4.4204,1.8942c5.8412,1.5715,11.388,2.8772,17.478,3.1772 c6.5769,0.3243,11.5615-3.1283,14.3877-7.9636c1.3809-0.9679,2.5828-2.1489,3.6149-3.4677 c1.5223-0.3341,3.0449-0.6624,4.5638-0.983c6.6843-1.4073,11.5425-7.8579,12.3839-14.4479 c3.2659-0.7906,6.5183-1.6906,9.7522-2.7186c0.2264-0.0719,0.4339-0.1624,0.6545-0.2397 c18.8082,0.1095,37.5916,0.4773,56.3922,0.8036c4.6034,0.0795,8.4031-1.2979,11.3557-3.5599 c0.6642,0.415,1.3151,0.8489,1.9791,1.2621c5.3884,4.6581,10.6992,9.4333,17.0988,12.6199 c2.8564,1.4243,5.5939,2.0055,8.1522,2.0055c2.0283,5.9486,6.0771,11.4388,9.8013,16.295 c5.5995,7.2957,10.9199,14.6254,18.4892,20.0043c5.5429,3.9392,11.5765,3.2959,16.4177,0.2753 c0.7753,0.2906,1.5357,0.5642,2.2563,0.819c6.2958,2.2167,13.6557,5.309,20.3438,5.4939c1.9414,0.0529,3.6846-0.234,5.2657-0.7433 c1.5301,0.3132,3.0356,0.3773,4.4863,0.2357c0.5435,0.2189,1.0962,0.4058,1.6567,0.568c1.2546,2.5658,2.7922,5.0374,4.1279,7.3616 c0.3623,0.6322,0.7546,1.2529,1.1244,1.8829c0.0717,0.1982,0.1453,0.3982,0.2189,0.5942 c3.7355,9.9315,8.4408,19.4459,12.067,29.4282c1.6433,4.5242,5.1921,6.837,8.9673,7.4163c0.415,2.0358,0.7942,3.979,0.9924,5.7336 c0.5904,5.2506,3.9637,9.6973,9.6973,9.6973c5.0694,0,9.9823-4.4146,9.6973-9.6973c-0.1282-2.3678-0.4283-5.2694-0.964-8.322 C1013.9994,1226.0803,1008.4545,1214.9567,1004.4831,1207.2421z"/><path fill="#B8D435" d="M1203.3649,279.0683c0.0056-0.8962-0.0396-1.7752-0.051-2.6659c0.0095-0.9339-0.0094-1.8715-0.0529-2.8129 c-0.1509-4.8959-0.5583-9.7372-1.2151-14.5612c-0.0828-1.4319-0.1659-2.8641-0.2451-4.2903 c-0.002-0.0415-0.0039-0.0831-0.0076-0.1227c-0.3923-7.073-0.8396-14.0801-2.0735-21.0363 c0.2247-3.8109,0.5792-7.6031,1.1848-11.3521c0.5697-3.5298-0.8546-6.2975-3.0582-7.8069 c-0.3339-2.1584-0.7772-4.3015-1.4526-6.4316c-0.783-2.4677-4.3583-2.5733-5.0941,0c-0.6018,2.1074-0.8639,4.1073-0.947,6.1034 c-1.0226,0.5585-1.9922,1.3583-2.8262,2.496c-3.4375,4.694-5.8279,12.584-6.9562,18.2722 c-0.1509,0.7604-0.1791,1.464-0.1545,2.1394c-0.9849,5.7997-2.1547,11.5615-3.3262,17.3233 c-2.3641,1.015-4.1998,3.1734-4.2262,6.5298c-0.1227,15.4781-1.7528,30.8883-1.8752,46.3664 c-0.0095,1.2,0.2847,2.2507,0.7582,3.1754c-1.2827,11.484-0.1414,22.3926,3.9338,33.4126c0.0453,0.1227,0.1151,0.2245,0.166,0.3433 c1.2283,5.6845,2.464,11.3652,3.6187,17.0648c0.2622,1.2905,0.8263,2.2886,1.5564,3.0602 c-0.1094,0.0527-0.2189,0.0943-0.3282,0.1623c-11.6462,7.1466-23.6077,14.999-34.641,23.4359 c-5.4447,2.6622-10.4463,7.0997-15.2648,10.3919c-6.2524,4.2713-11.9858,8.952-17.5968,13.9837 c0.0056-0.2357,0.0245-0.4716-0.002-0.7055c-0.1583-1.4149-0.9866-2.2716-2.4149-2.4149 c-5.3127-0.534-9.4747,6.6089-12.5311,10.1465c-4.5526,5.2674-7.9126,11.0841-12.0199,16.5835 c-0.9302,1.2453,0.9244,3.1224,2.1678,2.1678c4.6787-3.5884,9.1824-6.7278,13.2991-10.9823 c0.9111,0.5529,2.1299,0.6623,3.1714-0.1621c5.6411-4.4676,11.269-8.9447,17.1082-13.152 c4.8733-3.5128,11.2238-6.0524,15.1461-10.6181c0.2887-0.3358,0.4188-0.7847,0.4264-1.2337 c1.2507-0.7378,2.5281-1.4793,3.7979-2.2375c0.7356,0.1188,1.5092,0.0508,2.2469-0.2981 c17.1365-8.0844,32.3315-19.6721,46.5305-32.0997c0.9152-0.8018,1.032-1.9715,0.6603-2.9808 c1.3282-1.1584,2.2375-2.8017,2.2415-4.8809c0.0037-1.8452,0.0094-3.6904,0.0131-5.5354c0.002-0.0906,0.0245-0.1679,0.0245-0.2604 c0.0209-9.4238,0.0416-18.8477,0.0623-28.2735c0.0114-0.1791,0.051-0.3414,0.051-0.5301c0.002-0.5527,0.002-1.1074,0.0039-1.6603 c0.8546,0.2019,1.8262,0.0095,2.4336-0.6188c3.7244-3.8469,3.8131-9.037,4.4584-14.18c0.3168-2.5281,0.3469-5.0091,0.2471-7.4787 C1203.9534,294.4597,1203.3101,286.3055,1203.3649,279.0683z M1193.207,307.8134c0.0018-1.2602,0.0057-2.5223,0.0077-3.7846 c0.2716-0.1924,0.5282-0.4113,0.7677-0.6584C1193.8335,304.857,1193.543,306.338,1193.207,307.8134z"/><path fill="#B8D435" d="M1284.5287,474.6993c-0.4208-1.3036-1.2433-2.4696-2.4489-3.1148 c-0.0226-0.0661-0.0302-0.1283-0.0547-0.1944c-1.8698-4.9052-6.6334-7.9522-11.5991-9.32c-0.036-0.034-0.0566-0.0717-0.0945-0.1057 c-0.6697-0.6149-1.3754-1.1885-2.0638-1.7828c2.411-2.4188,3.1884-6.192-0.1227-8.9522 c-7.2958-6.0807-16.1384-10.4898-23.9266-16.0026c-6.1863-4.3809-12.3895-8.4485-19.0967-11.7029 c-2.3225-2.0451-4.5713-4.1658-6.6655-6.4034c-4.9656-5.3053-8.0485-11.95-13.0293-17.1571 c-1.547-1.6188-4.8524-0.4849-4.6372,1.9205c0.645,7.1938,4.1014,14.3386,8.6427,20.9418 c-1.8754,2.7395-2.1414,6.6808,0.6073,9.2316c5.0393,4.6751,10.1692,8.1162,16.4536,10.4578 c1.8602,4.4467,5.1393,7.9107,8.8938,11.4594c5.1335,4.8544,10.72,10.1803,16.6251,14.0556 c1.9659,1.2905,3.9921,1.3734,5.7581,0.7225c1.6263,1.0962,3.2563,2.1564,4.8676,3.1809c1.532,0.9735,3.1168,1.1319,4.5468,0.749 c1.7434,1.1678,3.3961,2.2545,4.9846,3.6676c0.2075,0.2264,0.4188,0.449,0.6339,0.6679c0.3755,0.9584,1.0283,1.7791,1.9564,2.3979 c0.2378,0.1567,0.4738,0.3151,0.7075,0.4774c0.0435,0.0301,0.0565,0.0377,0.0925,0.0605c0.0435,0.0414,0.0756,0.0717,0.1509,0.1395 c1.281,1.1302,2.7415,1.6207,4.2506,1.4868c1.7792,0.0641,3.5055-0.7925,4.4412-2.3867 C1285.3003,477.6577,1285.1985,476.1125,1284.5287,474.6993z"/><path fill="#B8D435" d="M1309.6514,243.7823c-8.105,2.1997-13.9933,6.6315-18.7666,12.1934 c-0.1472,0.0773-0.2905,0.1188-0.4375,0.2056c-1.5454,0.9887-3.0697,2.0036-4.5923,3.0244 c-0.9961,0.098-2.0017,0.4301-2.9696,1.1225c-10.3634,7.4202-20.3984,15.299-30.8033,22.6606 c-9.6484,6.6882-19.3967,13.2386-29.0129,19.9666c-4.0734,2.8508-3.8489,7.7861-1.566,10.8747 c-4.8995,5.4467-8.8257,11.7784-12.3481,18.3665c-0.7961,0.5622-1.5073,1.3301-2.0508,2.3904 c-2.5337,4.9431-4.7827,9.9238-6.6354,15.1649c-0.7904,2.2358-0.2828,4.245,0.8923,5.8033 c-0.5187,1.4547-1.0677,2.8979-1.6997,4.313c-0.1057,0.2357-0.1678,0.4753-0.2454,0.7131 c-1.0697,2.4356-0.2942,5.2072,1.4019,7.1034c0.0565,0.0659,0.1151,0.13,0.1735,0.1942c0.1132,0.119,0.2284,0.2339,0.3491,0.3452 c2.2827,2.2074,5.8448,2.815,8.8295-0.2471c0.0642-0.0661,0.1283-0.1302,0.1924-0.1961c1.1359-0.8605,2.1793-1.7905,3.1735-2.7603 c1.9017,1.3245,4.4204,1.6829,6.8789,0.1528c0.9414-0.5848,1.8658-1.1922,2.7902-1.7998c1.734,4.5959,8.6296,7.6937,12.6312,3.2225 c12.0387-13.4519,23.1077-27.7132,34.2013-41.9574c1.2621-1.0452,2.5317-2.0809,3.8147-3.1017 c1.5282-1.215,2.1057-2.7998,2.0452-4.4035c4.7091-6.0108,9.4503-11.9952,14.3047-17.8855 c-0.0056-0.0037-0.0115-0.0095-0.0189-0.0131c0.4227-0.5189,0.8434-1.0376,1.2452-1.5753 c1.7112-2.2924,1.6281-4.7885,0.5547-6.9053c4.1375-6.8296,8.2975-13.6443,12.8707-20.1984 c1.4188-2.032,1.6735-4.0186,1.1735-5.7411c3.7432-2.6697,7.4731-5.3582,11.1011-8.1881 C1323.4786,251.6721,1316.5509,241.9107,1309.6514,243.7823z"/><path fill="#26313C" d="M1279.1198,953.836c-0.4094-0.0999-0.817-0.2-1.2264-0.3c-6.1373-1.5073-11.3746,1.9152-13.4463,7.6354 c-0.0452,0.1244-0.0903,0.249-0.1339,0.3736c-2.4734-2.0074-5.8468-2.7715-9.8746-1.2113 c-6.694,2.5942-11.9274,6.3599-17.0139,10.9427c-3.8771,0.8131-7.7599,1.5998-11.6444,2.3828 c-4.5958,0.2772-9.1692,0.7792-13.7273,1.6414c-1.5603,0.0017-3.1205,0.0037-4.6826,0.0056 c-0.9509,0.002-1.8378,0.149-2.696,0.3566c-0.3188-0.2076-0.6378-0.3962-0.9546-0.6151 c-4.9658-3.3187-9.7446-2.2866-13.0313,0.7189c-0.1283-0.1416-0.2357-0.2905-0.3773-0.4264l-5.9032-5.6884 c-7.6466-7.373-19.0271,3.4979-12.7162,11.2728c-0.1283,1.6622,0.1907,3.379,1.0924,4.9469 c3.8165,6.6296,7.7278,13.163,11.9293,19.5193c0.2736,0.4791,0.5508,0.9584,0.8282,1.4376 c0.2075,8.7012,2.4526,21.1381,11.3992,25.3378c11.5576,5.4224,21.3645,0.349,29.8033-8.1447c0.553-0.5566,1-1.1509,1.4019-1.7603 c1.9244-1.0019,3.5035-2.464,4.577-4.3128c1.0414-0.6603,2.132-1.3887,3.2374-2.1659c1.8207-0.6227,3.6093-1.3207,5.3639-2.0867 c1.5621,0.017,3.1223,0.0377,4.6846,0.0377c6.0693,0,9.5275-4.0223,10.4105-8.6296c4.0601-2.8394,7.9484-5.9731,11.6954-9.2785 c1.5979-1.4094,2.5677-4.4846,1.7225-6.5166c-0.1359-0.3263-0.2642-0.6339-0.3925-0.9339 c7.4938-3.5695,13.5442-9.9105,15.6554-17.8947c0.7019-1.0133,1.2377-2.1528,1.4867-3.4885 C1287.6322,961.3959,1285.1249,955.3114,1279.1198,953.836z"/><path fill="#2B353E" d="M1274.2823,872.1797c-2.5811-6.5222-5.4846-12.8763-8.5693-19.1345 c-8.1766-19.6362-20.3494-37.1934-30.5392-56.3184c-2.1678-4.179-4.2771-8.39-6.2712-12.6615 c-2.5773-5.5145-8.8125-8.1126-14.7255-7.7861c-17.4797-35.3239-43.5703-67.4046-68.8552-95.9723 c-9.4899-10.7219-27.5037-2.0563-27.4395,11.3671c0.1433,30.4034,3.2224,60.7466,4.4204,91.1104 c-0.4868,16.627-0.5133,33.2768-0.5189,49.9208c0,2.747,0.5359,5.1129,1.4529,7.124c-1.3829,14.9594-3.4716,29.8544-6.6714,44.64 c-0.9396,5.1034,0.3134,9.4711,2.7715,12.8236c-2.3394,8.6259-1.7621,17.6573,2.9113,26.4113 c7.2844,13.6462,22.9624,22.072,36.6879,27.6583c30.728,12.5068,69.5326,17.9083,99.7247,1.0546 C1288.5624,935.728,1285.0853,899.4777,1274.2823,872.1797z"/><path fill="#2B353E" d="M1011.6996,986.2714c-2.6754-3.7866-6.2317-6.624-10.3334-7.8655 c-7.7843-19.8929-19.5985-38.2009-34.9276-54.3942c-28.945-30.5714-67.5856-51.1812-105.9318-67.4027 c-6.4768-2.7393-12.5916-1.8168-17.2327,1.0736c-2.9055-1.5566-5.8259-3.0865-8.7523-4.6053 c-16.5874-10.6803-33.9672-19.9872-51.9188-28.2395c-8.2768-3.8053-15.9027-0.8394-20.1685,4.5696 c-17.7477-9.9483-35.4182-20.0458-53.5225-29.315c-1.2451-0.6829-2.5053-1.3433-3.7978-1.9412 c-5.1544-2.3867-10.1256-1.9018-14.1593,0.1961c-1.9998-1.464-4.4072-2.4356-7.1391-2.6356 c-9.2748-0.6812-18.5572-1.117-27.8452-1.4018c-1.6207-1.9283-3.962-3.3583-7.124-3.894 c-33.3409-5.6488-66.8347-13.8557-100.7869-14.1708c-2.1773-2.1207-5.2186-3.511-9.139-3.5621 c-10.8785-0.1434-21.7474-1.23-31.7279-5.8957c-5.109-2.3884-9.918-1.7735-13.5933,0.4679 c-4.8714-3.6527-9.9765-7.0108-15.2743-10.1105c-1.1659-1.2736-2.5395-2.3282-4.1525-3.0187 c-27.6622-11.8445-52.3962-29.5016-78.351-44.5307c-9.2126-5.7054-17.7873-0.3755-20.8854,7.3201 c-0.1207-0.0433-0.2432-0.0868-0.364-0.1302c-15.497-5.6032-22.2967,15.4518-11.9633,24.704 c-9.5163-0.7378-16.9498,8.7861-15.5177,17.1552c-1.3301-1.2092-2.9338-2.1395-4.6845-2.7847 c-6.0695-6.7956-17.5932-8.5106-22.7136,1.9149c-2.4771,5.0432-4.7523,10.1747-6.9637,15.3348 c-7.6391,10.8257-12.8066,23.2398-15.8763,36.3899c-1.8073,7.7333,2.9414,14.3857,9.0919,17.2176 c0.3887,2.8337,1.7281,5.3655,3.6187,7.4391c-4.6526,1.8527-7.3259,4.8901-8.2126,8.3956 c-6.3412,1.3243-11.403,7.2844-10.4937,13.3348c-5.4693,4.1639-7.8485,13.0539-1.7395,17.9724 c31.9393,25.7075,65.4877,50.1188,101.6624,69.5684c1.0773,2.3433,2.8527,4.5167,5.4997,6.2712 c2.0016,1.3263,3.9977,2.6452,5.9826,3.9677c0.8508,0.6472,1.7262,1.2604,2.5884,1.8942c0.5773,3.2733,2.4433,6.426,5.9374,8.8767 c0.6074,2.3583,1.8433,4.5091,3.8223,6.1014c0.9754,0.7849,1.9771,1.515,2.9657,2.2696c-0.0037,0.0058-0.0056,0.0095-0.0095,0.0134 c0.0228,0.0095,0.0435,0.0206,0.0661,0.0301c8.3297,6.3466,17.1743,11.6784,26.6037,15.8724 c7.9034,5.177,16.6498,9.2634,25.7548,11.7728c3.8544,2.2016,7.6427,4.5373,11.3331,7.0936 c3.9902,2.764,8.1731,2.9132,11.8066,1.4755c5.409,2.8752,11.0182,5.3524,16.7951,7.7202c3.2261,1.3207,6.1411,1.3508,8.639,0.5131 c7.7805,4.2657,15.7385,8.0805,24.2058,11.0729c3.3204,1.1735,6.4032,0.9584,9.0615-0.1604 c5.2732,1.5714,10.605,2.9016,16.0536,4.0184c1.2396,0.2549,2.4545,0.3209,3.6375,0.2549 c7.6522,2.9675,15.3554,5.6844,23.4114,7.4692c2.8886,0.6394,5.4977,0.53,7.7807-0.1283 c6.3806,2.2091,12.767,4.3638,19.2683,5.9202c7.1561,1.7113,12.5991-1.3018,15.5386-5.9562 c0.1622,0.1021,0.3132,0.2114,0.483,0.3096c3.8563,2.213,7.7919,4.2506,11.7765,6.1825 c10.7784,7.5806,21.8757,13.8217,35.8445,14.9441c4.4355,1.7039,8.8672,3.4169,13.2745,5.177 c6.5958,4.198,13.5272,7.8391,20.6646,11.0956c7.4523,3.7883,15.1744,7.1504,22.7775,10.8766 c3.3903,1.662,6.624,2.0281,9.4993,1.4941c5.0336,1.5641,9.537-0.1227,12.733-3.3129c1.5942-0.1416,3.1017-0.6227,4.4827-1.3678 c2.6584,0.8092,5.3373,0.8695,7.8392,0.3489c7.6257,3.3978,15.3082,6.658,22.9908,9.8334c5.6411,2.3298,11.02-0.3,14.3479-4.6941 c14.1518,4.028,28.5657,6.6411,43.2892,7.3505c4.7808,2.3035,9.6861,4.292,14.6819,5.9844 c6.4731-1.3207,14.6312,1.464,21.5909,5.0355c3.3884,0.432,6.8052,0.7338,10.2578,0.8188 c3.7166,0.0923,6.7731-1.1038,9.0804-3.0564c1.2942,3.1732,3.6525,5.8787,7.2769,7.4844 c18.374,8.1371,38.4293,11.1823,56.3356-0.0435c2.6732-1.6754,5.1372-3.5999,7.4144-5.7128 c5.5771,1.2792,10.9898-1.5621,14.5311-6.3298c3.1527-4.2467,5.728-9.0991,7.4485-14.2271 c0.6718-1.6001,1.2942-3.2186,1.8848-4.8507c7.3069-4.9071,9.337-13.4536,8.037-22.0776 C1027.1417,1037.0375,1027.9493,1009.2734,1011.6996,986.2714z M321.2953,841.5989c-0.0321-0.6149-0.1208-1.2245-0.2585-1.8187 c1.9188,0.1378,3.8224-0.0887,5.5769-0.749c-0.0263,0.8943,0.0359,1.7905,0.2774,2.681 C324.9101,841.1123,323.0197,841.1254,321.2953,841.5989z"/><path fill="#2B353E" d="M963.1785,314.762c-0.2736-1.3603-0.5583-2.7169-0.8394-4.0733 c-2.9941-28.964-19.527-53.5677-42.9063-71.6137c-2.2301-1.7206-4.6564-2.4883-7.0694-2.5243 c-2.2847-1.8017-4.6921-3.4771-7.1541-5.0995c-0.3397-1.134-0.8095-2.283-1.447-3.4469 c-10.871-19.8006-33.7109-25.7585-52.6039-34.8598c-5.7863-2.7884-11.3273-2.2356-15.5648,0.2434 c-10.9709-0.5661-21.8079,0.8622-31.5486,4.5864c-1.5302,0.2284-3.0695,0.7359-4.5714,1.6056 c-2.6677,1.5471-5.2844,2.9336-7.7542,4.7827c-2.7036,2.0262-4.4016,4.5429-5.2844,7.2144 c-1.2113,1.449-2.3716,2.9734-3.4734,4.6223c-1.0452,1.5641-1.681,3.1433-1.9941,4.694 c-2.3337,4.1826-3.9958,8.7032-4.5883,13.8272c-0.7415,6.3959,0.5452,12.9368,1.4225,19.3985 c-0.0773,1.1396-0.0413,2.3301,0.1603,3.5772c0.3151,1.9339,0.6282,3.8677,0.9416,5.8014 c0.3564,2.2038,1.1998,3.9999,2.3601,5.4318c0.2152,0.7566,0.4359,1.5092,0.6246,2.2733c0.9546,3.9431,3.1035,6.5638,5.7769,8.0712 c0.1963,0.2923,0.3962,0.5848,0.5887,0.8773c0.1849,1.4961,0.6433,3.0167,1.4451,4.5184 c2.3357,4.3789,5.1318,8.2372,8.4165,11.9426c0.0981,0.2056,0.2055,0.3885,0.3018,0.5999 c1.3265,2.8904,3.2225,4.7205,5.3601,5.7052c0.3489,0.3,0.683,0.6057,1.0753,0.8848c0.7697,0.5491,1.5471,1.0867,2.3263,1.6207 c0.5301,0.7283,1.1659,1.4244,1.9375,2.0716c5.9544,4.9883,11.8086,10.0426,17.3573,15.4856 c2.181,2.1375,4.5733,3.2602,6.9467,3.5979c0.4886,0.6358,0.9698,1.281,1.4603,1.9168c0.2886,2.8299,1.4677,5.7033,3.8165,8.3429 c1.1567,1.2998,2.3547,2.5563,3.5753,3.7939c1.551,3.2186,3.9885,5.2205,6.7882,6.228c0.6698,0.5527,1.3433,1.0999,2.0301,1.63 c0.8717,0.7226,1.7621,1.4207,2.6508,2.1207c0.0848,2.9866,1.1677,5.9221,3.5524,8.2013c1.5981,1.5262,3.2601,2.964,4.9506,4.36 c1.0207,1.3979,2.4149,2.6773,4.2336,3.7506c2.034,1.2019,4.0262,2.4621,6.0167,3.7244c0.9584,0.6205,1.9205,1.232,2.8959,1.8299 c1.1038,0.6924,2.2111,1.3753,3.3299,2.0432c1.0019,1.2735,2.2791,2.4715,3.8809,3.5395c1.3358,0.8904,2.7094,1.6659,4.1036,2.36 c1.0848,1.4793,2.5374,2.7696,4.4091,3.747c9.605,5.0222,19.3796,6.8354,29.1734,4.5619c1.379-0.1715,2.66-0.5527,3.8318-1.1093 c1.8433-0.6319,3.6865-1.396,5.5278-2.3318c1.2189-0.6188,2.2261-1.3753,3.1129-2.196 c16.4705-6.5033,25.6849-24.1776,27.5942-42.9365c1.0867-2.9263,1.4715-6.0392,0.9263-9.3144 c0.8207-1.7961,1.3433-3.8677,1.4546-6.2336c0.0208-0.4339,0.0245-0.8641,0.0378-1.2961 C963.5993,320.7973,963.8143,317.9184,963.1785,314.762z M905.0264,298.6613c-0.268,0.7774-0.5114,1.6263-0.7322,2.5281 c-1.4696,2.3773-3.1506,4.5694-4.7091,6.3882c-1.8148,2.117-2.9147,4.3621-3.4468,6.6033c-1.5339,0.3887-2.8923,0.981-4.0808,1.732 c-0.6265,0.0075-1.2453,0.068-1.8678,0.1001c-5.6619-3.7545-11.3785-5.5696-18.1043-6.192 c-7.6373-8.2598-9.1315-21.1344-11.3652-32.3958c1.9451-1.015,3.7543-2.5223,5.275-4.6299 c1.5546-2.1526,3.049-4.3449,4.5432-6.5371c8.2448,4.6241,17.1874,7.6051,25.9755,11.518 c0.3452,1.0377,0.8187,2.0923,1.4338,3.1564c2.7526,4.7543,5.6865,9.4427,9.037,13.7952 C906.2054,295.8841,905.5356,297.1858,905.0264,298.6613z"/><path fill="#2B353E" d="M654.5143,289.1884c-27.2339-29.2205-64.1443-56.5054-105.9243-53.1263 c-11.2369,0.9093-22.6342,3.4902-33.6674,7.5013c-10.3691,0.6489-19.7683,6.9938-27.9659,13.782 c-16.412,10.4464-30.5825,24.2-40.1669,40.2254c-1.3433,2.2451-2.1263,4.4373-2.4752,6.539 c-20.3985,21.408-33.5297,50.7002-31.0147,78.4547c0.13,1.4358,0.6225,2.6924,1.33,3.7657 c0.2793,3.8413,0.9999,7.6617,2.3357,11.4237c1.0415,2.9375,3.4865,4.2392,5.9316,4.2958 c2.3773,4.7224,5.5506,8.9617,9.7238,12.4351c0.9094,0.7565,1.8678,1.4225,2.8622,1.9847 c9.786,8.5295,22.1625,14.0896,35.1728,18.6685c20.1779,7.1031,42.4403,9.6917,63.7784,8.7559 c18.7384,2.6603,37.5274-0.2189,56.5807-1.3394c2.1812,0.9602,4.4941,1.5469,6.8298,1.6375 c33.6976,1.3188,74.438-10.1218,91.3424-41.9761C710.0895,362.8264,680.9388,317.5372,654.5143,289.1884z M535.8571,353.5554 c-5.0072-10.3822-5.143-22.6021,7.9749-26.6848c13.2141-4.1148,24.5624,4.2958,31.5657,14.9026 c6.9863,10.5785,3.5524,20.4891-0.1943,30.7581c-8.3787-0.0037-16.7725-0.0527-24.9058-2.1545 C546.5298,363.7999,541.0905,358.8097,535.8571,353.5554z"/><g><path fill="#26313C" d="M379.8891,1387.1252c0.8019-1.3812,1.6603-2.6943,2.5471-3.9771c0.4395-0.9283,0.864-1.8604,1.3168-2.7848 c0.6093-1.2434,1.3508-2.2263,2.1809-2.981c-0.2415-1.2981-0.4924-2.5942-0.7602-3.8828c2.4545-1.6753,4.3223-4.2278,4.9562-7.373 c6.0543-2.8713,10.62-10.2954,7.1541-18.2212c-1.9791-4.1996-3.9467-8.4503-5.9372-12.7159 c6.9297-3.6377,11.1256-13.4502,4.1299-20.9515c-13.0236-13.965-16.3026-38.8026-20.8043-56.6222 c-6.7146-26.5773-12.2293-53.1168-15.1931-80.4054c-6.4355-59.2542-4.3582-119.0404,1.13-178.2831 c5.7015-61.5352,15.2273-122.8647,25.8076-183.7281c4.4902-25.8284,9.5333-51.6246,16.2064-76.9868 c2.3148-8.7957,5.2411-17.3007,8.4653-25.7849c0.9001-2.3716,1.8678-4.5619,3.1923-6.7429c1.0904-1.8,1.1489-2.5754,1.9582-2.7905 c2.8979-0.7641,3.7281-5.1977,0.8661-6.6202c-0.6358-0.3151-1.2565-0.5454-1.8717-0.7378 c1.7981-5.4938,0.8887-12.0046-5.1977-14.7252c-9.286-4.1488-18.1892-9.4786-28.464-10.6334 c-5.0412-0.5678-9.5275,0.1567-13.5651,1.8226c-3.7317-0.9453-8.0314-0.1603-11.8538,3.0527 c-25.3491,21.3154-36.4861,51.2736-45.3098,81.9374c-0.0661,0.1152-0.1397,0.2189-0.2038,0.3358 c-3.196,5.8996-5.5864,11.9973-7.6278,18.2081c-4.7166,10.1332-9.82,20.0948-12.7802,30.9393 c-0.8773,3.2167-0.5753,5.9506,0.4925,8.1221c-0.0887,0.198-0.1718,0.3979-0.2604,0.5942 c-0.913,2.0112-1.8488,4.0148-2.8148,6.0033c-0.4359,0.8923-0.7415,1.7772-0.949,2.647c-0.8151,1.085-1.4924,2.3942-1.964,3.9676 c-7.6711,25.6171-11.8294,52.1736-21.191,77.2926c-1.2376,3.3204-0.864,6.1617,0.4698,8.3672 c-0.8472,3.3752-1.5546,6.8014-2.1394,10.2728c-0.0641,0.234-0.1377,0.4641-0.2019,0.6961l0.0867,0.0114 c-0.0697,0.4339-0.1489,0.8659-0.215,1.3017c-2.8923,0.8151-5.46,2.9414-6.6711,6.6714 c-3.7414,11.4971-6.8562,23.3397-9.1862,35.3407c-0.1302,0.5906-0.268,1.1792-0.3926,1.7715 c-2.4677,1.566-4.2354,4.2487-4.2694,8.0674c-0.1868,20.5569-3.6469,40.8668-5.0317,61.3334 c-1.8904,13.6423-4.0374,27.2375-4.211,41.0592c-0.0095,0.8075,0.0622,1.5582,0.2038,2.2601 c-0.0265,1.1603-0.0454,2.3207-0.0566,3.4829c-0.4963,0.8639-0.9037,1.8148-1.1263,2.926 c-1.3717,6.843-2.0716,13.7048-2.4093,20.5815c-1.3753,3.728-2.3828,7.5013-3.0903,11.301 c-1.7471,1.8717-3.047,4.4224-3.4715,7.7467c-9.0049,70.4779-27.3017,140.0858-2.7582,209.728 c21.3174,60.4823,67.4007,106.6393,112.703,150.0381c2.4356,2.3337,5.1486,3.2979,7.7654,3.2903 c0.7755,0.1754,1.5434,0.2549,2.298,0.2378c5.1996,3.2488,11.1633,1.1018,14.5197-3.064 c1.2094-0.1415,2.3697-0.4867,3.4601-0.9661c-5.0808-18.5645-4.575-37.4878,1.7075-56.5863 c0.9453-2.8734,2.7735-4.7393,4.9355-5.7562c2.6734-11.2444,7.1315-22.338,11.8746-32.9825 c0.0753-0.1774,0.1565-0.3528,0.234-0.5302C378.61,1390.2192,378.9892,1388.676,379.8891,1387.1252z M384.8397,696.3625 c0.3547,0.1283,0.7113,0.2621,1.068,0.4074c-0.4001,0.749-0.7963,1.5017-1.1848,2.2565c-0.0811-0.017-0.1603-0.0303-0.2415-0.0454 C384.6115,698.1113,384.7265,697.2379,384.8397,696.3625z M233.8867,1303.0917c1.2131,5.3674,2.4715,10.7257,3.8167,16.0612 C236.1733,1313.8154,234.928,1308.4591,233.8867,1303.0917z"/><path fill="#26313C" d="M245.5915,1315.4059c-1.2301-6.275-1.2264-12.5953-2.0415-18.9081 c0.3246-8.5164-14.0687-11.4349-15.5687-2.2301c-0.2678,1.6433-0.4376,3.2942-0.5659,4.947 c-1.7924,1.4149-2.9414,3.662-2.7244,6.8145c0.4811,6.9542,1.3301,13.7765,5.4958,19.3495 c3.6658,4.9015,7.924,16.2761,15.7234,15.6234C260.1242,1339.8115,251.9966,1324.1372,245.5915,1315.4059z"/><path fill="#26313C" d="M339.8714,716.6345c-1.283-2.362-2.8187-3.3299-5.3451-4.109c-2.7658-0.8547-6.8126-0.0605-8.6993,2.2997 c-11.569,14.4575-17.576,31.9449-21.2928,49.8926c-0.5282,2.5488,0.1567,4.9034,1.4754,6.7975 c-0.2529,1.0208-0.5245,2.0359-0.766,3.0584c-1.6054,6.7919,4.2299,10.5841,9.3183,9.5011 c0.0037,5.2317,0.881,10.3746,3.5092,15.3405c1.4244,2.6921,5.394,1.3205,5.4844-1.4849 c0.5226-16.2347,5.5696-32.1544,7.3788-48.2984c0.2357-2.1129-0.4849-3.6695-1.6829-4.694 c2.8544-6.6466,6.2807-13.0594,10.62-19.2778C341.7014,723.0359,341.3146,719.2928,339.8714,716.6345z"/></g><path fill="#231F20" d="M697.9583,349.8651c-13.067-34.8956-39.5461-64.499-68.1799-87.5804 c-29.4017-23.702-62.8331-39.1537-101.1926-28.8053c-41.1629,11.1028-73.9436,45.2948-96.5099,79.9715 c-11.0236,16.9402-32.3825,52.2698-21.9228,74.6154c-7.943,50.5226,75.3831,62.7255,109.9636,66.1819 c31.6053,3.1583,63.8124,2.5318,95.2874-1.6773c22.1041-2.9545,48.1813-6.9542,66.6083-20.6155 C707.901,412.7586,708.2764,377.4216,697.9583,349.8651z M683.369,410.3927c-11.3671,18.3534-36.7126,22.6946-56.2639,26.2509 c-29.4224,5.3543-59.7692,6.3334-89.5859,4.8033c-27.947-1.4339-57.3844-5.1695-83.3013-16.3271 c-16.8235-7.2409-34.8051-20.3947-34.639-40.6234c0.0245-2.9431-2.6394-4.462-5.013-4.1581 c-1.6997-12.9312,4.3036-27.3471,9.5428-38.6255c7.6843-16.5327,18.0232-32.1259,29.377-46.3589 c28.9583-36.3069,83.4619-75.921,130.9886-50.9492c31.6976,16.6573,58.8467,43.3045,79.8432,71.9986 C683.1216,342.1016,702.3127,379.81,683.369,410.3927z"/><path fill="#231F20" d="M841.0952,413.2566c-17.3065-4.5203-33.5032-2.4941-48.2626,3.964 c-10.1407-0.1642-20.1193,1.4771-29.1375,5.4127c-1.8092-0.0357-3.6243-0.0056-5.4486,0.1132 c-9.0447,0.5925-26.8075,7.8108-22.9662,19.691c-1.4774-0.8979-3.5791,0.0585-3.5733,1.9489 c0.032,10.8802,11.8122,13.3442,21.4814,13.1557c35.2446,7.5504,80.5922,7.8881,95.061-31.6826 C850.1511,420.6581,846.1664,414.5812,841.0952,413.2566z"/><path fill="#231F20" d="M913.1973,224.3724c-29.5317-25.6812-70.3871-48.0097-109.7806-30.9656 c-27.4715,11.8839-37.9725,41.0065-30.7788,69.0929c6.1731,24.1078,23.5549,44.6213,44.0514,59.688 c-1.2055,0.9888-1.7772,2.6017-0.6358,4.1714c12.6766,17.4025,27.4076,33.9221,43.4102,48.3229 c13.2782,11.9502,29.0412,22.7928,46.9662,24.9586c-0.0792,0.3433-0.0566,0.7262,0.1227,1.1112 c7.9692,17.1629,14.1348,35.9143,15.7195,54.8186c1.664,19.84-3.4752,38.7029-3.5449,58.3655 c-0.0114,2.9319,3.5354,3.4035,5.0618,1.3717c12.4444-16.5497,13.6103-41.6177,10.9238-61.4201 c-2.7942-20.5909-9.5032-39.3444-24.5153-53.9226c1.2661,0.0641,2.5413,0.0887,3.8281,0.0605 c37.8652-0.8075,57.5883-38.8065,59.1901-72.3173C975.2286,285.6622,942.8198,250.1328,913.1973,224.3724z M957.4828,336.3699 c-2.6848,16.8799-10.8691,33.6371-25.7905,42.7742c-18.6063,11.3917-38.5746,2.0131-54.2188-9.6937 c-12.1839-9.1182-22.6927-21.0154-34.1728-31.4486c2.2903,0.8979,4.0298-2.1112,1.894-3.5638 c-21.0248-14.299-41.0912-30.0771-55.0016-51.7171c-12.2709-19.0891-17.9307-47.2474-5.2186-67.6554 c11.1861-17.9515,33.6259-22.1116,53.1301-20.2022c24.3152,2.3809,45.1345,17.4778,62.8068,33.2768 c18.2251,16.2951,34.0107,35.6879,46.4683,56.709C956.8168,300.7744,960.4033,317.992,957.4828,336.3699z"/><path fill="#231F20" d="M889.0085,269.9351c-5.5485-3.4112-12.25-4.3357-18.5609-3.0866 c-6.8409,1.3566-15.1649,7.7241-14.6744,15.2555c0.1623,2.4922,2.3338,4.3789,4.8714,3.7111 c0.1849-0.0491,0.3472-0.1263,0.5245-0.183c-0.468,3.2036-0.215,6.6522,0.1849,9.1276c1.1773,7.2938,5.309,14.6914,11.5219,18.8704 c11.3594,7.6371,31.1109,3.2847,33.5766-11.6878C908.5657,289.1187,899.4738,276.3687,889.0085,269.9351z M879.3658,304.9118 c-4.343-2.3413-6.4542-7.226-7.9371-11.6482c-1.4263-4.2506,0.1378-9.3032-1.1489-13.2954c0.5-0.2697,1.0187-0.5168,1.5658-0.7225 c1.4944-0.5622,3.0187-0.7169,4.5262-0.5943c-1.5488,1.3508-2.6074,3.2941-2.6224,5.3845 c-0.0435,5.7487,0.4774,15.3498,7.5805,17.0762c0.2944,0.0717,0.5887,0.1018,0.8812,0.1378 c0.8056,2.7978,3.3639,4.4769,6.024,4.7354C885.3389,306.674,882.0297,306.3474,879.3658,304.9118z"/><path fill="#231F20" d="M536.3493,324.5669c0.9302-3.1338,2.2565-6.1128,4.0055-8.7824c1.0641-1.6244-1.2735-3.2733-2.6074-2.0111 c-15.282,14.4404-12.0784,39.0197,2.5432,52.9715c11.3086,10.7935,37.9803,13.101,45.6174-3.4601 C597.3505,338.4716,552.0312,304.8382,536.3493,324.5669z M545.9713,361.0643c-7.6957-6.2693-11.3181-16.3177-11.1596-26.2716 c0.4888,0.0753,0.998-0.0153,1.4642-0.3736c8.8069-6.7824,16.9987-8.0052,26.6395-2.0602 c3.0055,1.8546,5.9846,4.4071,8.5542,7.3616c-0.4416-0.2566-0.9132-0.449-1.3906-0.6169 c-0.6207-0.6489-1.3941-1.2245-2.0073-1.6904c-0.9734-0.7376-2.0018-1.4113-3.0262-2.0884 c-1.6263-1.4339-3.3923-2.6809-4.9109-3.7414c-4.8469-3.379-11.388,1.1566-11.4086,6.5467 c-0.0039,0.9925-0.0207,2.0962-0.0226,3.2526c-0.051,0.4735-0.0529,0.9546,0.0095,1.4433 c0.0829,5.4261,0.8282,11.6614,5.2844,14.5102c0.6132,1.0189,1.447,1.9018,2.4263,2.5413c0.1149,0.1774,0.2339,0.3547,0.3472,0.534 c1.6771,2.6678,3.6015,4.5563,6.2881,5.1165c0.4397,0.4378,0.9094,0.817,1.4188,1.102 C557.2668,366.4412,549.3447,363.813,545.9713,361.0643z"/><path fill="#231F20" d="M840.3027,553.0219c-3.4261-4.9674-9.09-7.754-13.1103-12.2556 c-4.4639-4.9977-6.4299-11.4349-6.8808-17.9817c-0.0413-0.6018-0.2206-1.1037-0.4791-1.5245 c0.0641-1.1603,0.0943-2.3148,0.0792-3.4601c-0.0151-1.1057-0.7546-1.9791-1.6773-2.4414c0.2813-0.215,0.5095-0.5226,0.6321-0.9414 c1.5245-5.2108-0.1378-10.2389-1.0245-15.4667c-1.0433-6.1468-1.3943-12.2859-2.6942-18.3779 c-0.3962-1.8547-3.4243-1.9057-3.7846,0c-1.0943,5.7995-0.6924,11.0841-0.0302,16.9421 c0.6584,5.8298,0.7565,12.4407,4.2222,17.3347c0.1001,0.1395,0.2152,0.2566,0.3377,0.364 c-0.4811,0.2114-0.9094,0.5755-1.1846,1.1773c-3.7791,8.2333-6.0601,17.0006-9.8844,25.2264 c-4.3976,9.4597-10.6424,17.6704-16.7288,26.0604c-3.0828,4.2487,3.5751,9.0504,7.1107,5.4863 c8.7748-8.8446,16.6498-21.2776,21.0438-34.254c0.6151,1.6508,1.3792,3.2507,2.3338,4.7788 c3.7487,5.9921,10.837,13.0952,18.0552,14.1008C839.1292,558.1347,842.127,555.6671,840.3027,553.0219z"/><path fill="#231F20" d="M567.6584,174.3515c-4.9676-14.6027-28.3206-19.2515-41.663-16.8855 c-13.8442,2.4545-30.8393,11.0595-33.8372,26.1414c-0.0999,0.5036,0.4888,0.9038,0.8831,0.5131 c9.7105-9.5766,18.4608-17.4873,32.3446-20.1381c7.7202-1.4735,15.9047-0.0415,23.0117,3.0959 c6.0373,2.6639,9.9935,8.0428,16.012,10.5219C566.2622,178.3643,568.2603,176.1212,567.6584,174.3515z"/><path fill="#231F20" d="M805.4202,145.3338c-4.0052-9.4947-18.093-10.2267-26.9584-8.7522 c-11.7821,1.9584-19.5004,12.2859-22.7661,23.0012c-1.4019,4.5976,5.6051,6.4372,7.1315,1.9657 c3.0167-8.8322,9.1371-15.7157,18.7589-16.9921c7.8484-1.0405,13.8065,4.7667,21.1419,4.3121 C804.3354,148.7684,806.1732,147.1176,805.4202,145.3338z"/><path fill="#B8D435" d="M1126.1837,325.0575c1.6018-5.1902,0.0433-11.9898-1.3112-17.1309 c-1.0321-3.9149-6.3298-4.3374-8.3032-1.2847c-2.6603-1.317-5.875-1.6829-8.9484-1.198 c-6.4921,1.0243-12.9105,2.4186-19.3328,3.7939c-1.4263-1.2281-3.111-2.2395-4.9692-2.9657 c-6.7656-2.6433-13.4124-3.9299-19.0497-0.7529c-4.4866-4.4166-13.2179-2.6659-13.8838,5.5638 c-2.9735,36.7106,11.9387,71.7306,17.4307,107.6451c0.2925,1.9149,0.9358,3.4562,1.7905,4.7222 c-0.0868,0.5263-0.1528,1.0622-0.1793,1.6169c-0.749,15.5065-0.1453,30.977,0.7869,46.442 c-1.2,9.8142-2.3658,19.6306-3.2451,29.4676c-3.5242,1.283-6.6334,4.2431-8.3278,9.2389 c-6.5052,19.1967-13.5536,37.5408-15.9365,57.8147c-0.1246,1.0585-0.1227,2.0471-0.0339,2.981 c-0.0151,0.0263-0.0282,0.0547-0.0433,0.0812c-6.4825,8.4238-11.2427,17.7344-14.8726,27.9997 c-0.5999,1.698-0.8226,3.3168-0.7642,4.8431c-2.7395,5.2411-2.0092,10.1747,0.5623,13.8555 c-0.0415,3.8412-0.1038,7.6844-0.1906,11.5275c-4.0847,21.4269-1.8433,43.8591-1.6544,65.6425 c-0.6283,1.2998-1.0471,2.7714-1.1342,4.4411c-0.8243,15.7574,0.434,31.358,2.2886,46.923 c-0.3281,1.0112-0.5094,2.1149-0.5037,3.3073c0.0848,16.4025,1.0017,32.7731,1.9337,49.1436 c-0.6584,20.6966-2.3884,41.1705,0.7566,61.869c0.5114,3.3697,2.1583,5.494,4.2997,6.6391 c-0.015,3.1207,0.0039,6.243,0.0624,9.3635c-0.5094,0.8998-0.8585,1.9433-1.0245,3.1262c-1.4734,1.749-2.4093,4.0828-2.413,7.0259 c-0.017,12.6577-0.0339,25.3151-0.051,37.9747c-0.8245,10.5312-1.7791,21.053-2.7582,31.575 c-0.2925,3.1414,0.8452,5.5769,2.7073,7.2504c-0.0112,7.8881-0.0208,15.7744-0.0321,23.6606 c-0.0076,5.4562,3.1053,8.8786,7.0278,10.2785c-0.4226,7.0222-0.7998,14.0461-1.0697,21.0739 c-3.0206,1.7188-5.3639,4.8091-5.792,9.2183c-0.6075,6.2505-1.0925,12.5048-1.5264,18.7627 c-0.115,0.8282-0.2189,1.6583-0.3322,2.4885c-0.0017,0-0.0017,0-0.0017,0v0.017c-5.7468,41.6443-9.4711,83.4921-9.5447,125.5587 c-0.0037,2.1641,0.4774,3.9885,1.2886,5.4883c0.2358,3.7206,0.5546,7.4335,0.9887,11.1276 c-0.7981,1.3131-1.3661,2.8545-1.5886,4.6355c-4.2657,34.0919-3.264,68.3647-2.498,102.6226 c-1.8998,28.9113-2.6696,57.6412,8.3429,85.2996c0.0376,0.1169,0.0677,0.236,0.1056,0.3528 c0.0112-0.0056,0.0227-0.0094,0.0321-0.0132c0.3395,0.8452,0.6715,1.6923,1.0338,2.5358c0.6583,1.5337,1.5791,2.6902,2.6564,3.5374 c0.2716,4.811,0.551,9.6219,0.8472,14.4309c-4.8298,17.3367-3.9564,36.4296-1.9866,54.0339 c-2.2848,1.8301-3.9319,4.5808-4.1639,7.6711c-1.3979,18.6383,0.1018,42.3137,9.8409,59.7446 c0.0547,0.2775,0.1074,0.5547,0.162,0.8302c0.5925,2.9922,2.266,4.941,4.3809,6.0259c0.4565,0.583,0.9624,1.1245,1.4453,1.6848 c-1.2869,2.9866-1.1566,6.5637,1.5376,9.1898c2.7036,2.6357,5.4071,5.2715,8.1127,7.9071c1.8092,1.8546,3.8619,2.5715,5.8373,2.496 c1.2546,2.0847,2.7223,4.094,4.4186,6.0033c5.3636,6.0337,13.8177,2.0282,16.3743-4.243c0.0452,0.0018,0.0886,0.0074,0.1359,0.0094 c8.0427,0.2661,10.1614-8.7539,6.4523-13.782c1.3622-1.6356,2.215-3.7562,2.2035-6.3165 c-0.0282-6.7335-0.3057-13.4462-0.7583-20.1438c2.379-1.7488,3.8715-4.6771,3.4902-8.8352 c-1.3848-15.1027-1.3961-30.7279-1.5886-46.4004c0.6642-32.6807,2.4565-65.6178-3.4299-97.8513 c2.3906-22.5304,4.9489-46.2966-3.8544-67.1949c-0.915-2.1735-2.198-3.8376-3.6771-5.0432 c-0.0189-0.6073-0.015-1.2111-0.0452-1.8187c-0.1302-2.6979-1.1171-4.8694-2.5659-6.5127 c1.6527-13.1084,4.4884-26.1227,7.0466-39.1254c0.2416-0.8396,0.4359-1.7207,0.5547-2.6603 c0.0245-0.1904,0.0471-0.3829,0.0717-0.5736c2.7886-14.5082,5.0488-29.011,4.73-43.625 c1.6244-20.976,1.8979-42.0254-0.9547-62.8389c1.6226-1.3207,2.8225-3.2562,3.243-5.8939 c5.4581-34.09,9.1354-68.3837,10.9634-102.8075c1.783-10.8577,3.347-21.7418,4.6111-32.6524 c0.6866-1.3753,1.1735-2.9337,1.3735-4.6921c1.5923-14.0405,1.8413-28.213,1.8451-42.3611 c0.0792-5.1921,0.0962-10.3897-0.0378-15.5969c-0.0112-0.3999-0.0452-0.783-0.0868-1.164c2.9941-1.1,5.5789-3.447,6.8298-7.3373 c9.6633-30.0884,4.6149-61.2729,1.8658-92.1933c0.2019-9.2709-0.2113-18.5834-1.8092-27.9866 c-0.2679-1.5716-0.802-2.8998-1.5265-4.013c0.136-0.8074,0.2323-1.6433,0.236-2.5413c0.1056-27.7225,2.4904-55.3714,3.6073-83.0525 c0.3151-1.1905,0.5037-2.4752,0.5076-3.8846c0.015-7.1711,0.0961-14.3386,0.1962-21.5003 c3.2601-2.1583,5.5505-5.909,5.5599-11.3425c0.0623-33.7673,1.0206-67.3158-2.8867-100.8323 c0.6133-1.5792,1.0133-3.377,1.1132-5.4241c0.7925-16.2611,0.1624-32.6486-1.8168-48.8814 c0.2039-1.0226,0.3169-2.113,0.3246-3.2808c0.1697-28.4846,2.3337-56.7807,0.0583-85.0692 c2.0376-9.8239,3.6527-19.7343,4.9922-29.6129c3.2977-24.3229,5.4675-49.3059,2.0261-73.6985 C1125.3799,326.8441,1125.8799,326.0424,1126.1837,325.0575z"/><path fill="#356833" d="M1086.0035,453.6404c0.4038-20.8456-0.6357-42.0516-4.9297-62.4991 c-3.6508-17.3818-10.1901-35.7485-25.6681-45.8514c-4.8976-3.1942-9.9011,3.6147-6.4503,7.7654 c-1.2,0.517-2.2225,1.532-2.8018,3.0903c-2.6226,7.0543,1.2377,14.4443,4.2242,20.806c4.375,9.322,8.8691,18.0686,11.1823,28.1809 c1.0564,4.6223,4.6449,6.3958,8.2201,6.0827c1.7357,15.4686,1.7377,31.2202,1.2188,46.6927 c-0.7942,23.6455-5.694,46.5664-12.1879,69.1648c-0.2301-0.0131-0.462-0.0151-0.6904,0.0302 c-4.1564-1.1849-8.788,0.3114-9.7369,5.7977c-2.4603,14.2405-5.7336,28.247-9.7654,42.0591 c-3.5677-0.0377-6.9617,1.8698-7.6787,6.2222c-1.8998,11.5369-3.2997,22.4116-0.8416,33.724 c-0.2942,1.0226-0.4735,2.1339-0.4866,3.3544c-1.2755,126.5531-3.7356,253.0664-4.1112,379.6326 c-0.1584,53.5847-0.4791,107.1621-0.9319,160.7354c-3.6035,0.717-6.7184,3.1282-7.5373,7.5278 c-2.5602,13.7614-4.3374,28.0507-5.4656,41.9969c-0.7056,8.7031-1.2451,18.9702,1.2849,27.8678 c-0.4584,1.3151-0.7264,2.7545-0.7264,4.3223c0.0056,55.5317,9.1956,110.6072,9.3427,166.1464 c0.0114,4.4015,1.6734,7.7202,4.1733,9.9692c1.2811,10.6086,2.6735,21.2134,3.9431,31.822 c-1.5697,1.7754-2.2489,4.0149-2.411,6.441c-1.4529,1.5942-2.4093,3.6583-2.464,5.8619 c-0.0868,3.5752-0.1737,7.1484-0.2605,10.7238c-0.017,0.2905-0.0621,0.5602-0.0546,0.8678l0.017,0.6453 c-0.0454,1.8112,0.3885,3.3073,1.0903,4.5582c0.1698,0.6038,0.3547,1.2017,0.5095,1.8092 c-1.3999,10.5747,2.0131,20.2798,4.5884,31.1355c0.3301,2.6187,0.6848,5.2261,1.1301,7.7899 c2.462,14.1782,8.9539,32.7051,23.1021,39.1821c13.0236,5.9618,24.3604-12.2424,11.4255-19.5496 c-5.3732-3.0358-8.6559-8.4768-10.9615-14.5007c2.5396-3.2319,3.3734-7.6675,2.6735-12.118 c-0.0226-0.1454-0.0623-0.3019-0.0886-0.4491c1.6036-2.0526,2.5997-4.7391,2.5941-8.0748 c0.0547-39.5292-7.7748-78.9282-10.7577-118.4121c3.728-243.9313,5.3353-487.9473,3.4243-731.8975 c-0.0887-11.3445-0.1924-22.6888-0.304-34.0333c0-0.0226-0.0017-0.0435-0.0017-0.0641c2.0753-10.735,3.4998-21.5323,4.5469-32.373 C1070.8688,542.551,1085.1151,499.4352,1086.0035,453.6404z"/><path fill="#231F20" d="M1151.4214,872.8194c-8.1427-1.1735-13.6519,8.4408-17.3629,14.5706 c-4.5808,7.5599-5.111,15.2932-6.2239,23.6944c-0.3737,2.8226,3.7128,2.8602,4.5958,0.6227 c2.5809-6.5448,7.0165-13.0179,10.554-19.1005c3.2318-5.5543,10.5482-9.7653,11.0973-16.2951 C1154.2024,874.8682,1152.8987,873.0305,1151.4214,872.8194z"/><path fill="#231F20" d="M981.5244,1058.851c-6.7353-3.9298-14.6253-5.7769-22.3171-5.7467 c-2.8337,0.0114-3.9394,3.9148-1.447,5.3431c5.9769,3.426,12.15,6.6522,17.7647,10.6652 c5.7203,4.0884,11.1915,11.0067,18.4552,11.4464c2.1904,0.132,4.5035-2.0621,4.3016-4.3016 C997.5099,1067.7484,988.3333,1062.8243,981.5244,1058.851z"/><path fill="#231F20" d="M793.7513,389.7716c-5.1826-5.6808-14.5726-2.8092-21.3589-1.5942 c-8.373,1.4998-17.0553,4.1732-24.0717,9.0579c-3.996,2.7828-1.6583,9.5973,3.43,8.1389 c6.9824-2.0017,13.7461-4.2903,20.9172-5.5769c6.7372-1.2094,16.2725,0.749,21.0834-4.7958 C795.1191,393.4261,795.1833,391.3413,793.7513,389.7716z"/><path fill="#231F20" d="M767.1457,372.0069c-2.3148,0.0829-4.4222,1.0508-6.4185,2.1734c-1.5394,0.864-2.9487,2.094-4.7052,2.4791 c-1.5338,0.3377-0.9849,2.3564,0.3416,2.5204c1.5148,0.1868,3.0111-0.1772,4.4808-0.5092 c2.1318-0.4793,4.1581-0.4132,6.3013-0.6416C770.919,377.6271,771.0983,371.8672,767.1457,372.0069z"/><path fill="#FFF" d="M542.8055,341.1431c-3.5449-2.4696-9.3823-1.5206-13.5443-1.2018c-3.5206,0.2679-6.59,2.1999-7.5693,5.7618 c-1.0207,3.7149,0.7623,6.692,3.6073,8.8635c2.2791,1.7376,5.4695,2.2169,8.224,1.4489c0.0472-0.0075,0.0963-0.0095,0.1434-0.017 c3.2772,0.2075,6.7334,0.1132,9.1389-1.5622C547.7393,350.9989,547.7393,344.5806,542.8055,341.1431z"/><path fill="#FFF" d="M871.9476,283.3379c0.3868,0.2772,0.3698,0.2206-0.051-0.1718c-0.8338-0.8282-1.8187-1.4018-2.9526-1.7206 c-0.7358-0.2624-1.4696-0.5265-2.2055-0.7886c-1.981-0.7094-4.2866-1.2376-6.3694-1.2038 c-4.6034,0.0717-8.4466,3.7866-8.4466,8.4466c0,4.66,3.8432,8.3749,8.4466,8.4466c2.0828,0.0338,4.3884-0.4944,6.3694-1.2038 c0.7359-0.2622,1.4697-0.5262,2.2055-0.7886c1.1339-0.3188,2.1188-0.8924,2.9526-1.7206c0.4208-0.3924,0.4378-0.449,0.051-0.1718 C875.353,290.2732,875.353,285.5264,871.9476,283.3379z"/><path fill="#FFF" d="M566.934,343.3221c-7.0071,0-7.0071,10.8671,0,10.8671 C573.9411,354.1893,573.9411,343.3221,566.934,343.3221z"/><path fill="#FFF" d="M894.9515,285.8811c-0.7114-1.2169-2.0413-1.981-3.4525-1.981c-1.4113,0-2.7413,0.7641-3.4526,1.981 c-0.6547,1.1169-0.8416,2.9412,0,4.0374l0.2546,0.334c0.8226,1.0734,1.766,1.8338,3.198,1.8338 c1.4319,0,2.3752-0.7604,3.1979-1.8338l0.2546-0.334C895.793,288.8223,895.6063,286.998,894.9515,285.8811z"/><path fill="#231F20" d="M756.3672,1275.8087c-2.2601-12.2935-7.8353-24.8358-13.4159-35.92 c-3.964-7.8787-10.7333-18.5967-21.1118-16.361c-1.7225,0.3717-3.2298,1.1149-4.5694,2.0847 c-2.0413-0.9659-4.6486-0.8414-6.6524,0.962c-6.8201,6.1394-8.8937,17.0216-11.0426,25.5719 c-3.3676,13.3895-5.443,27.147-6.6277,40.895c-1.8678,21.6609-3.4885,55.0338,15.0498,70.7421 c9.122,7.7296,21.0703,7.6805,31.8468,3.6847c17.4872-6.4845,23.9434-20.2041,24.5396-38.1897 C764.9818,1311.2157,759.6028,1293.4094,756.3672,1275.8087z M746.0718,1335.7949c-0.8848,11.1671-12.7764,19.7571-23.5416,17.1893 c-7.1109-1.698-10.1315-11.5841-11.7993-18.2686c-3.0845-12.3632-2.9072-25.566-2.2866-38.2029 c0.717-14.6122,3.3753-29.2261,6.6318-43.3024c2.4186,1.6339,5.6467,1.6376,7.9974-0.6566 c1.1659-1.1395,2.3884-2.5282,3.3884-4.0432c0.6415,1.2303,1.2584,2.4735,1.8641,3.715c5.041,10.3237,8.7428,21.406,10.986,32.6616 C742.6569,1301.6616,747.4415,1318.5282,746.0718,1335.7949z"/><path fill="#231F20" d="M877.9188,1192.3225c-22.9247-12.9161-64.1613-10.9843-77.1396,14.2687 c-1.2565,0.2358-2.4847,0.9659-3.4169,2.2601c-10.4407,14.4895-6.3787,40.6046-4.4921,57.1979 c2.1547,18.9437,6.5261,36.567,20.51,50.2849c28.6676,28.1224,74.6851,19.3193,90.7404-17.2006 C918.7083,1265.9567,911.9351,1211.489,877.9188,1192.3225z M888.2878,1290.0492c-10.5974,31.943-47.6456,32.6334-67.7913,9.837 c-9.5502-10.8066-10.9935-28.0111-12.6725-41.6819c-1.0302-8.3823-0.9169-16.7441-0.7906-25.0868 c1.1905-0.3114,2.3073-0.8811,3.1375-1.6547c4.7866-4.4562,5.0657-10.1106,7.941-15.6083 c2.5488-4.8713,7.3145-8.3181,12.3538-10.2766c11.4502-4.4506,25.3-3.0166,36.2842,2.0868 C894.6835,1220.6411,896.657,1264.8284,888.2878,1290.0492z"/><path fill="#231F20" d="M951.1909,1355.3162c-5.0147-12.0708-16.1668-24.1849-30.2338-23.2399 c-6.1843,0.4152-11.9141,2.8923-17.6873,4.9185c-6.8109,2.3923-13.9067,3.764-21.0212,4.8979 c-45.3533,7.2296-113.3162-2.3413-140.3859,42.2722c-1.0112,0.4623-2.0206,1.1188-3.0016,2.0244 c-12.3481,11.4087-21.3929,23.7173-23.8134,40.7255c-2.2432,15.7611,0.9924,30.6279,7.6315,44.9513 c13.9047,30.0054,43.8289,52.0793,73.1475,65.4556c31.1129,14.1934,67.4216,21.108,100.8945,11.5294 c18.5873-5.3167,34.8202-16.5026,45.442-32.726c11.6747-17.8364,13.1744-40.8234,13.4954-61.486 c0.2451-15.8575,0.0717-31.692,0.6528-47.5457C956.9393,1390.0173,957.879,1371.4207,951.1909,1355.3162z M932.8545,1434.2161 c-0.4679,20.8456,0.4376,42.0383-6.9391,61.9031c-12.3105,33.1447-55.9432,36.3236-85.2391,30.4185 c-32.8297-6.6184-64.2916-24.3624-85.9333-50.0266c-19.2552-22.8361-21.3475-52.913-2.3282-76.7679 c3.03-3.8016,2.9413-8.1089,1.1508-11.3577c22.874-22.7605,58.8147-23.5491,90.4613-24.2039 c18.1384-0.3735,35.8013-1.2621,53.7207-4.1959c7.9578-1.3037,15.2951-4.7373,23.0776-6.6636 c6.2183-1.5377,10.5804,10.1445,11.8406,14.7781C938.2767,1388.7288,933.3317,1413.0856,932.8545,1434.2161z"/><path fill="#231F20" d="M981.4075,1284.6401c-2.1885-11.0125-9.1164-37.9858-24.2775-36.8822 c-2.847,0.2075-5.6996,1.6415-7.3409,3.9261c-1.2339,0.1887-2.3962,0.8396-3.015,1.981 c-4.9958,9.1993-5.1996,21.4607-6.1938,31.7072c-1.1093,11.4331-0.4321,22.4135,4.7958,32.7656 c6.6051,13.0781,24.087,20.8965,33.924,7.105C986.9108,1314.572,983.7374,1296.3639,981.4075,1284.6401z M957.2507,1274.9559 c1.0999,2.6545,2.0092,5.3921,2.8319,8.1505c2.6092,8.7389,4.8242,19.5117,3.545,28.5846c-0.0075,0.0566-0.017,0.1-0.0245,0.1547 c-2.9093-2.6771-4.3111-6.3278-5.4015-10.0577C955.7319,1293.3547,956.8829,1284.027,957.2507,1274.9559z"/><path fill="#231F20" d="M1392.5585,1276.637c-0.1018-7.7523-1.9337-15.8875-3.2524-23.0775 c-1.998-10.8954-5.9901-20.9608-12.8521-29.6771c-2.4243-3.0808-7.1881-2.2526-9.7388,0 c-9.52,8.4032-15.6725,20.874-20.559,32.3561c-5.3978,12.6803-9.1597,25.7473-5.8429,39.4086 c2.6017,10.7104,10.8462,22.5078,23.1643,16.3705c10.037-5.0016,16.9535-15.0557,25.1056-22.8191 c1.234-0.4244,2.3112-1.2905,2.8301-2.5262c0.249-0.2113,0.4962-0.4302,0.749-0.6357 C1395.7394,1283.1403,1395.0394,1279.1991,1392.5585,1276.637z M1362.9495,1294.5131c-1.3717,1.3604-6.4185,4.6392-5.4186,5.0714 c-3.2205-1.3943-4.3129-10.7937-4.4354-13.8783c-0.5586-14.1897,7.6125-33.4825,17.6063-45.891 c3.2241,6.2184,4.9692,13.2537,6.4767,20.0193c1.2811,5.7449,1.6132,11.8368,2.7281,17.6686 C1373.8656,1282.7743,1368.6451,1288.8718,1362.9495,1294.5131z"/><path fill="#231F20" d="M1485.4781,1177.5706c-7.3541-12.014-21.5455-16.8553-34.9202-14.7422 c-7.4296,1.1735-14.5101,7.3693-17.8383,14.7007c-0.983,0.2284-1.879,0.9132-2.2959,2.1018 c-7.1318,20.3193-7.1014,45.1628-1.7604,65.9727c2.5337,9.869,8.1484,18.6194,18.1213,21.9604 c11.0238,3.6924,24.7228-3.4071,30.8542-12.3423c7.624-11.1145,10.1597-26.5945,11.8728-39.6387 C1491.1512,1203.116,1492.3286,1188.7604,1485.4781,1177.5706z M1467.7625,1224.2069c-1.2056,5.6693-3.2091,19.2307-8.1125,22.3964 c-13.4254,8.6711-15.5404-9.6447-17.2327-20.5607c-1.4188-9.1465-1.4755-18.4269-2.3337-27.5829 c1.3318-0.1019,2.6205-0.668,3.6544-1.879c5.141-6.0186,5.16-14.501,14.5913-14.4066c6.8694,0.0699,11.4142,6.2372,12.0557,12.3501 C1471.4208,1204.3893,1469.8096,1214.583,1467.7625,1224.2069z"/><path fill="#231F20" d="M1503.0203,1279.8142c-27.0245-14.8632-58.3164,0.5621-83.194,12.4198 c-14.4574,6.892-28.4658,15.0707-41.244,24.7434c-1.9338,1.4641-3.964,3.0337-5.9601,4.7091 c-0.3396-0.0359-0.6848-0.0435-1.0376-0.0206c-17.0874,1.1149-24.3134,19.0419-26.6718,33.9578 c-2.8619,18.108-0.2507,36.8275,4.2657,54.4508c8.7843,34.2804,34.6145,75.2699,75.3342,70.6138 c45.0249-5.1469,65.7159-57.0941,81.4034-93.0404C1519.287,1357.0104,1542.3966,1301.4709,1503.0203,1279.8142z M1500.4319,1354.1182c-7.6561,21.8474-18.5818,42.5535-29.5847,62.8634c-10.0427,18.5325-22.9568,37.8671-44.5195,43.6213 c-19.8569,5.3014-37.8763-11.856-46.9871-27.6227c-8.1313-14.0707-12.5782-31.2506-14.6234-47.2588 c-1.2848-10.0579-1.5547-20.5229,0.6246-30.4656c1.9733-9.0032,7.7408-14.8877,12.7593-22.2343 c1.4056-2.0583,1.349-4.6149,0.3716-6.7844c7.9486-5.8733,17.646-10.4803,23.9965-13.8916 c14.9537-8.0333,30.3883-14.6177,46.6779-19.2758c16.4384-4.7017,38.3953-8.1863,52.1132,4.8488 C1515.708,1311.6476,1505.8729,1338.5909,1500.4319,1354.1182z"/><path fill="#231F20" d="M1561.4047,1179.1403c-6.441-16.7948-16.9723-31.8429-30.9128-42.957 c0.6527-1.5981,0.5942-3.4434-0.683-5.2091c-8.6483-11.9521-21.7625-21.191-35.2087-28.3452 c-5.5127-4.7695-12.184-6.8448-19.0156-8.7937c-17.3666-6.809-35.7388-10.4991-54.2732-12.616 c-6.1053-0.6982-12.3162-1.1396-18.5668-1.3416c-2.1904-0.2375-4.3713-0.4772-6.5277-0.7319 c-5.2147-0.6133-10.4369-0.8849-15.6611-0.8925c-4.9639-0.4564-10.2993,0.2151-15.0178,0.4153 c-10.788,0.4526-21.5549,1.9996-32.1844,3.8279c-14.3273,2.464-28.4451,6.0919-42.3875,10.2672 c-22.8154,2.145-45.9872,8.6804-66.8403,18.4023c-0.6227,0.2094-1.2434,0.4152-1.866,0.6265 c-2.5452-8.4806-5.1978-16.9309-7.6296-25.3435c-6.2977-21.7909-13.1632-43.425-21.3569-64.584 c-6.1202-15.8063-13.0839-31.3524-21.5004-46.0739c18.9817,6.1787,39.5765,7.7673,58.8486,4.5826 c17.7704-2.9356,36.8689-10.9124,50.8754-23.5812c-0.5017,1.5942-1.03,3.1829-1.6224,4.7562 c-4.4204,11.7539-11.7463,22.2229-20.1514,31.4506c-8.3861,9.2068-18.3289,16.7535-29.0052,23.0945 c-4.8168,2.8583-9.8976,5.3335-15.084,7.441c-5.2013,2.1129-11.184,2.8865-14.814,7.4579 c-3.2261,4.062-2.0602,9.2466,2.9301,11.0991c10.4803,3.8922,26.4546-6.6372,35.2935-11.7537 c11.9067-6.892,22.7023-15.9159,32.0732-25.9453c16.2157-17.3573,32.8579-45.3193,26.7621-70.1026 c10.0975-23.9303,4.73-50.2925-4.7562-73.5588c-18.3552-45.0212-50.0906-83.9882-81.3297-120.6779 c-14.8801-17.478-30.298-34.4899-45.6571-51.5454c-10.2313-11.3632-20.391-27.8619-34.1749-34.6446 c-1.2961-0.6377-2.5771-0.9735-3.8112-1.0867c-0.5809-34.7578-1.6733-69.5156-3.0543-104.298 c-1.6774-42.2725-3.4752-85.1297-2.462-127.8001c9.8577-5.3714,18.6476-13.9159,27.4205-20.5589 c10.8068-8.1843,22.1305-15.6574,34.2466-21.7549c0.9094-0.4584,1.4169-1.215,1.6639-2.0735 c0.0792,1.2679,0.1398,2.532,0.2717,3.8111c5.6072,54.3658,52.0227,102.151,104.698,113.4049 c5.1676,1.1037,8.5144-3.7997,6.4373-8.373c-11.7897-25.9358-35.3483-42.9175-57.0354-60.1088 c-15.9894-12.6764-33.8862-27.1528-39.3254-46.9136c36.9161-8.3766,66.4462-27.43,86.8013-60.554 c9.8616-16.048,17.5363-33.3317,25.9659-50.1455c4.6053-9.1898,9.4973-18.2251,14.799-27.032 c1.0452-1.7357,2.1339-3.445,3.2281-5.1486c0.0773,0.4621,0.1338,0.93,0.2036,1.396c0.6812-0.9922,1.2623-1.681,1.9302-2.3092 c1.1659-2.696,2.713-5.2336,4.6544-7.4163c-0.1115-0.4754-0.2189-0.9548-0.3379-1.4244c3.4678-2.8792,6.8448-5.8713,10.0918-9.0146 c3.2054-3.1054,0.9114-9.2671-3.7375-9.0219c-2.4506,0.1283-4.4712,0.9132-6.2166,2.1168 c-0.9526,1.4698-2.2432,2.7526-3.9071,3.8111c-0.2039,0.2566-0.4093,0.5075-0.6075,0.7735 c-0.0529-0.0981-0.1133-0.1907-0.168-0.2869c-0.7601,0.4509-1.5187,0.8603-2.2771,1.2471 c-1.2452,1.4358-2.7017,2.6622-4.3224,3.6357c0.0547,0.1169,0.1151,0.232,0.168,0.3489 c-26.7642,19.2081-55.3468,35.6334-81.5261,55.6828c-16.5969,12.7104-32.5278,28.5866-43.5723,46.9908 c3.9996-14.5272,8.3635-29.0128,9.9087-43.9231c3.1073-30.0072-6.9467-59.9993-11.4011-89.3614 c-0.6565-4.3223-6.507-3.2791-7.7277,0c-10.8708,29.211-20.4532,59.0447-25.3738,89.8896 c-4.4391,27.8264-4.873,57.9807,9.1277,83.2789c-0.8131-0.0605-1.6847,0.0999-2.5753,0.5566 c-18.0985,9.2916-35.7388,19.7834-50.5962,33.788c1.5168-29.1204,4.6185-58.0807,10.271-86.6351 c0.9358-4.7336-6.194-6.7788-7.2788-2.0075c-9.3239,41.0725-13.4745,82.8015-14.9969,124.7776 c-13.1405,3.7244-25.1963,4.0733-37.9087-1.5809c-0.1112-0.0491-0.2262-0.0811-0.3394-0.1151 c-0.3737-3.8111-0.8096-7.6201-1.3906-11.4293c-3.2432-21.2646-10.1049-41.548-19.0835-60.973 c0.8076-0.8037,1.2811-1.9168,1.1263-3.3109c-1.8546-16.6989-2.7621-33.2165-3.0847-49.9436 c0.1396,0.0603,0.2528,0.1472,0.4152,0.1849c26.3243,6.0147,56.943,9.9446,81.428-3.8734c3.4374-1.9414,3.03-6.6145,0-8.6446 c-16.7893-11.2425-38.0085-18.8759-58.0166-21.1041c-8.9464-0.9961-18.1495,0.0508-25.3584,5.7504 c-4.2374,3.3488-6.9619,10.3786-6.4619,16.4705c-0.7867,0.7396-1.3148,1.8-1.3263,3.2055 c-0.1057,13.0707-0.5432,26.4829,0.3151,39.6989c-9.0088-16.3158-19.1871-32.0183-29.6016-47.1643 c-3.6846-5.3601-7.407-10.705-11.1463-16.0424c16.893-6.4277,29.479-26.6564,36.3501-42.0874 c7.6807-17.2497,9.7578-36.2464,7.3524-54.8791c-5.3168-41.1479-31.1355-78.2791-61.2974-105.5582 c-33.6373-30.4224-78.6246-37.8785-122.0516-30.427c-15.0461,2.5818-30.5261,5.7693-44.6307,11.75 c-4.1751,1.7697-15.6083,8.873-14.9875,14.7009c-0.5923-0.249-1.1716-0.5199-1.7658-0.7633 c-19.4269-7.9447-39.2236-11.3426-60.0637-12.8744c-27.7582-2.0405-55.3883,0.0292-83.158,0.7933 c-20.5513,0.5661-41.0386,0.3199-61.5107-0.9519c-0.5848-0.4291-1.3564-0.7055-2.3262-0.7376 c-29.313-0.9764-56.6354-10.7568-85.3069-15.5913c-26.3981-4.4506-54.2698-5.7382-80.9753-4.2166 c-44.1269,2.5148-84.4128,17.2883-121.8797,40.0998c-62.4426,38.0189-135.4091,112.3663-100.3493,191.7964 c9.3521,21.1908,25.3076,38.067,45.2892,49.6963c4.4863,2.6112,9.9634,5.1675,15.8517,7.1655 c-9.7974,12.5746-18.3308,26.2303-25.0493,41.4404c-18.4591,41.7875-18.9042,88.9124-5.9503,132.294 c14.3687,48.1154,46.6871,90.084,79.5356,127.1758c14.0631,15.878,29.5072,30.5487,46.4005,43.3609 c-32.8713,18.3704-48.8268,56.8487-59.8863,91.0048c-6.3279,19.5419-11.1368,39.5442-16.1496,59.4521 c-2.3943,9.5049-5.1073,18.9194-7.9279,28.3036c-0.0773-0.1263-0.1603-0.2471-0.2376-0.3737 c-0.5811-0.9621-2.3714-0.6414-2.2507,0.6096c0.1679,1.7337,0.4886,3.4129,0.8773,5.0674 c-4.2506,13.9538-8.6448,27.8697-12.5048,41.9442c-15.1479,55.2487-26.4774,111.2728-36.2444,167.6838 c-5.1148,29.5414-10.3144,59.0656-14.2783,88.754c-25.6829-3.894-51.051,9.8199-71.3985,25.2905 c-0.7847-13.0576,0.4585-28.5526,6.9863-38.6311c3.1489-4.8582-2.0075-10.7595-7.2278-9.4012 c-15.8743,4.1279-30.5222,18.7798-41.3706,30.3884c-13.9913,14.9724-25.1698,32.5183-33.6672,51.1151 c-12.0784,26.4338-18.4797,56.6864-12.8501,85.0806c-2.2412-1.3055-4.4676-2.6527-6.6391-4.1282 c-8.1918-5.5693-16.5631,3.5546-15.1178,11.6219c15.7893,88.137,127.6549,87.3314,196.6837,74.7588 c15.0065,35.5255,38.3746,67.0345,64.8576,95.1703c35.5294,37.7463,76.9453,69.874,115.8254,104.015 c17.6988,15.5404,34.6127,31.3071,56.5035,40.7896c23.406,10.137,49.6304,11.6105,74.2381,17.8439 c2.8357-0.8904,5.658-1.2017,8.8125-1.2056c0.9679-0.002,1.9055,0.1698,2.7997,0.4585c0.317-0.2811,0.6188-0.5792,0.8943-0.9038 c0.7376-0.0037,1.4755-0.0094,2.2131-0.0131c1.3753-0.0076,2.6093-0.2039,3.73-0.5265 c16.0458-1.5621,31.3485-6.2788,46.6344-11.2294c22.285-2.6902,44.6269-4.8826,66.995-6.7543 c43.3364-3.626,86.9616-5.0693,130.4658-4.6429c39.5255,11.3256,85.5165,16.6289,124.2759,1.4489 c39.4669-15.4574,63.2142-54.4904,75.6982-93.0856c9.1351-28.2469,12.7084-57.641,14.8593-87.135 c0.217,5.0203,0.3433,10.0481,0.3246,15.0837c-0.1001,27.1583-1.5452,55.4054,4.8976,82.0392 c-8.1522,4.3092-16.6139,8.0468-25.5282,10.9237c-4.6053,1.4886-2.6639,8.7183,2.0073,7.2788 c8.9466-2.7583,17.4591-6.3223,25.6586-10.4558c3.6488,11.3707,9.9653,22.4342,20.6606,28.3375 c14.5801,8.0447,32.0507,2.5432,46.0497-3.8696c3.2827-1.5037,4.075-4.3789,3.3544-7.0353 c0.9093-1.2507,1.4755-2.8508,1.479-4.8204c0.0341-20.7588-0.1603-41.5215-0.4509-62.2839 c21.821-17.4365,43.2837-33.8108,71.4081-38.3879c0.5509,0.1681,1.1093,0.3359,1.6527,0.5057 c26.7037,8.3333,52.4829,20.3116,79.9111,26.0358c11.4634,2.3923,23.9265,2.3527,35.1088,5.6694 c6.5486,1.9431,12.7896,5.3279,18.9911,8.1315c9.4408,4.2657,26.0452,14.446,38.0935,12.8368 c0.8678,0.1848,1.781,0.334,2.8073,0.432c1.5923,0.151,3.0526-0.1378,4.3733-0.7095c3.7432,1.6754,7.3372,2.8923,11.5406,2.0074 c9.8616,7.741,21.7211,12.9878,35.9878,14.699c24.3135,2.9169,46.9401-11.3652,64.0182-27.132 c23.3586-21.5663,40.6649-49.7417,55.1073-77.7773c29.877-57.9995,51.5376-125.3286,52.964-190.9937 C1566.8834,1205.5365,1566.1685,1191.564,1561.4047,1179.1403z M1223.9746,427.0066 c19.3704,16.2893,42.061,30.9826,56.6091,52.0396c-35.3521-11.4067-65.5425-39.7215-78.8396-74.3945 C1208.2003,412.9775,1216.1318,420.4108,1223.9746,427.0066z M1218.9995,317.3674c10.8484-15.4611,25.7246-28.0055,40.8762-39.05 c18.0497-13.1574,37.9783-24.2415,56.6978-36.8085c-1.6149,2.8488-3.2054,5.711-4.7526,8.5936 c-9.1332,17.0271-16.7911,34.7976-25.8848,51.8435c-8.6351,16.1894-19.1854,31.0431-33.39,42.8082 c-15.1573,12.5539-34.0333,19.3891-53.1282,23.4927c-0.0812-1.6093-0.0868-3.247,0.002-4.9224 C1200.2838,346.9219,1209.8096,330.4645,1218.9995,317.3674z M1176.1761,271.6953c4.2979-22.7549,11.3557-44.9005,19.2137-66.6799 c5.1449,28.0923,11.9031,55.8619,6.7014,84.6164c-5.0581,27.9601-16.8799,54.0752-16.297,82.6449 c-0.3018-1.3885-0.7848-2.679-1.8073-3.8299c-0.4133-0.4643-1.7339-1.3452-2.6754-2.1207 c-0.1056-1.0734-0.5962-2.1338-1.3394-2.979c1.6715-0.4434,3.0563-2.3017,2.0054-4.3204 C1168.1334,332.4004,1170.7898,300.2064,1176.1761,271.6953z M1123.116,405.0724c1.3564,0.5,2.9431,0.3508,4.3035-0.9509 c14.1763-13.5688,31.1599-23.4568,48.5964-32.2316c0.4603,0.4529,0.8999,0.9207,1.2925,1.4207 c-11.1219,6.1731-21.4401,13.5141-31.4996,21.3079c-7.5958,5.8845-16.1989,12.2481-22.9757,19.6116 C1122.9254,411.1775,1122.9915,408.1231,1123.116,405.0724z M1058.8848,283.6491c6.4486-3.5148,16.28-1.4244,22.9869-0.0622 c12.7294,2.5809,25.9171,6.8504,37.7142,12.9385c-21.3776,8.8824-44.2401,3.6865-67.1989,3.5451 C1054.9681,294.2408,1052.123,287.3357,1058.8848,283.6491z M1029.5474,169.8688c-0.1661-0.3435-0.3435-0.6793-0.5189-1.017 c-0.2528-1.9565-0.583-3.8959-0.9924-5.8072C1028.6022,165.305,1029.1116,167.5783,1029.5474,169.8688z M1124.6216,849.1569 c1.713-8.8276,2.6375-17.5553,1.2565-25.6151c0.3358-7.373,0.6509-14.748,0.9415-22.1228 c1.5526-39.5009,1.9978-78.9603,1.6997-118.4104c2.1396,2.4603,4.3942,4.8583,6.5505,7.3091 c8.6069,9.7822,17.4026,19.3967,26.1302,29.0695c21.2738,23.5758,42.4044,47.3815,61.7935,72.5496 c18.5327,24.0566,36.9463,49.9246,48.5719,78.1583c8.5635,20.7984,13.6331,43.9194,2.0339,62.6086 c-7.9919,12.8746-23.6814,20.423-37.8483,25.2191c-23.7811,8.0485-50.2019,4.6467-72.9889-5.1354 c-3.0602-1.3132-6.0337-2.7584-8.905-4.3225c-0.5887-0.7603-1.1906-1.5148-1.8018-2.2639 c5.192-2.8792,10.0389-6.3674,14.7291-10.0239c7.2316-5.6373,15.5667-11.4859,20.6985-19.1854 c3.3074-4.9637-3.2148-11.3596-8.158-8.1578c-7.058,4.5732-12.8859,11.3557-19.1609,16.9477 c-4.8751,4.3451-9.9578,8.6164-14.4536,13.3953c-4.7657-4.6637-9.9879-8.3466-15.4669-9.6691 c-4.0203-4.8826-7.2843-10.303-9.5973-16.2648C1122.167,891.8934,1123.4952,870.5308,1124.6216,849.1569z M1111.2604,440.5697 c-0.0945,3.3282-0.1624,6.6561-0.2264,9.9862c-0.5341-0.249-1.1737-0.317-1.9058-0.0831 c-10.735,3.445-22.817,3.6902-34.0107,4.0789c-0.3262,0.0114-0.5791,0.1151-0.8016,0.2529 c0.0717-5.7883-0.0529-11.5841-0.4301-17.3838C1084.6112,443.8167,1099.4969,444.4977,1111.2604,440.5697z M1074.2592,457.4251 c0.2302,0.1604,0.502,0.285,0.8583,0.2962c11.8729,0.4057,23.9398,1.5396,35.5353-1.7167 c0.1077-0.0303,0.1963-0.0775,0.2942-0.1151c-0.8698,59.3693,2.5641,119.0705,3.2415,177.9493 c0.2036,17.6685,0.215,35.3521,0.0812,53.0415c-14.4575,2.8694-29.3792,3.3185-44.0271,1.845 c-8.3446-0.8377-16.7761-2.8073-24.4888-6.1296c-7.2258-3.1129-11.7726-8.1296-17.2271-13.3311 c0.1982-17.4968,0.819-34.9899,2.6621-52.366c0.6018-5.6712,1.4376-11.3407,2.879-16.8649 c0.4529-1.7357,0.2697-4.3335,0.8491-6.4258c0.4847-0.819,0.964-1.6377,1.4336-2.464c0.4435-0.3887,0.6661-0.8377,0.7284-1.2944 c5.3789-9.5956,9.9784-19.6552,14.1555-29.8015C1064.7013,527.335,1073.4309,492.5772,1074.2592,457.4251z M1067.3501,839.3784 c-8.871,0.7019-17.8118,0.4075-26.6659-0.3773c-3.1638-0.2811-6.4542-1.1396-9.6747-1.5131 c-0.1963-9.5635-0.4208-19.1288-0.698-28.696c-1-34.3995-1.7886-68.812-1.8452-103.2283c-0.002-1.2961,0-2.5981-0.0039-3.8942 c22.1041,16.548,58.0543,27.9943,83.3713,12.7954c4.3619-2.6207,0.5529-8.5844-3.8865-6.6486 c-13.7441,5.9977-26.1924,7.488-40.8989,4.3884c-13.3857-2.8206-25.0886-9.8202-37.7935-14.4744 c-0.2925-0.1076-0.5546-0.1358-0.7961-0.119c-0.0114-5.6768-0.0283-11.3518-0.0133-17.0364 c8.6825,9.4709,24.9001,13.7745,35.9578,15.7876c16.2611,2.962,33.4033,2.7808,49.7793,0.0923 c-0.4735,43.6119-1.9355,87.2635-4.2278,130.8715C1097.4462,835.3201,1081.8926,838.2294,1067.3501,839.3784z M1109.3264,838.8218 c-0.2623,4.6884-0.5471,9.3749-0.8282,14.0631c-22.3945,13.2198-52.8358,17.3875-77.1378,7.0864 c-0.0642-4.7468-0.1133-9.4918-0.2-14.2386c2.1224,0.5754,4.3828,1.0413,6.9675,1.3715 c10.618,1.3566,21.2303,1.7584,31.9182,1.1547C1083.5264,847.4985,1097.2706,844.8705,1109.3264,838.8218z M570.6601,60.2551 c-1.2585,0.5178-2.5225,1.0112-3.7714,1.5556c-0.0189-0.6652-0.1246-1.3207-0.2944-1.9623 C567.949,60.0032,569.3036,60.141,570.6601,60.2551z M475.6387,123.2515c1.6-1.6885,3.0923-3.4499,4.513-5.2601 c0.7169,0.0935,1.4356,0.1256,2.1545,0.0962c-2.4261,2.2849-4.8072,4.5959-7.1109,6.943c-0.2245,0.2301-0.4546,0.4509-0.681,0.6793 c-0.0075-0.4434-0.0471-0.8792-0.1283-1.3056C474.8105,124.0532,475.2312,123.6815,475.6387,123.2515z M322.4595,600.0053 c-32.9109-37.7237-62.5126-79.6357-73.8268-129.1208c-10.4427-45.6796-1.2264-92.9365,24.1774-132.0469 c2.3792-3.6656,4.9525-7.1806,7.6052-10.6332c0.4565-2.3073,1.83-4.5128,4.411-6.143c1.0112-0.5678,2.0677-1.6074,3.6015-3.0753 c1.4057-1.3452,2.9018-2.6185,4.5223-3.7016c0.6095-1.1113,1.2415-2.2111,1.9339-3.2808c0.4886-0.7565,1.0848-1.4037,1.7206-1.998 c-0.1961,0.0282-0.3943,0.0585-0.5904,0.0867c15.8838-16.4742,34.1295-30.8808,51.9149-44.9326 c29.4715-23.2813,58.1769-46.5778,84.0807-73.8833c26.083-27.4922,46.442-59.4145,74.9965-84.6523 c12.0367-10.6388,25.9849-18.9013,40.2346-26.2121c7.475-3.8347,15.1744-7.2428,22.9417-10.4342 c3.1885-1.3112,6.3884-2.5753,9.5542-3.9411c2.9582-1.2764,5.9088-1.765,8.9068-1.9698c1.3036-1.7395,3.1829-3.0281,5.3053-3.6506 c1.0282-0.302,2.1299-0.3727,3.2016-0.4368c1.1603-0.0707,2.3282-0.05,3.4904-0.0481c0.0018-0.681-0.1341-1.3622-0.4509-1.9621 c51.6453,7.4061,104.6396,4.9676,156.1772,13.2235c46.5948,7.4636,85.9521,36.2408,118.4612,68.9498 c33.6165,33.822,60.1164,73.37,88.118,111.7238c28.9395,39.6425,59.3259,79.4566,76.9322,125.7305 c8.603,22.6154,13.3121,46.3307,13.599,70.5231c0.2963,24.9587-5.6393,48.5323-12.62,72.2722 c-6.4221,21.8455-14.6139,43.1515-26.3583,62.7198c-11.8802,19.7986-27.6583,33.775-48.3739,43.7554 c-24.0076,11.5652-50.6096,17.8874-76.3226,24.3963c-27.4962,6.9598-54.5621,14.714-82.7639,18.4156 c-59.0222,7.7448-118.8705,4.3923-178.1906,3.7997c-29.0451-0.2886-58.0941,0.3527-87.0731,2.3566 c-27.7261,1.9167-55.3713,5.3787-83.2146,4.3373c-28.1943-1.0527-52.9074-9.9069-76.3641-25.3151 C359.5567,639.9873,340.1863,620.3246,322.4595,600.0053z M61.5427,1318.9208c0.5697,0.432,1.1565,0.8358,1.7036,1.3037 c7.409,6.324,19.8458-1.7867,14.1047-10.8824c-18.5043-29.3148-10.6312-67.2893,2.6809-97.1023 c7.107-15.9139,16.6459-30.9336,27.8828-44.2362c5.2166-6.175,10.9935-11.854,17.11-17.1309 c2.2679-1.9565,4.679-3.6678,7.1373-5.2959c-0.7283,2.9998-1.3641,6.0298-1.7113,9.1371 c-1.1358,10.1709-0.9696,20.0835,0.5906,30.1941c0.6735,4.3638,6.2919,4.7202,9.0183,2.3809 c19.4571-16.6875,43.227-31.745,69.7608-26.3887c0.1737,0.0341,0.3321,0.0265,0.5019,0.051 c-1.73,14.3914-3.1319,28.8262-4.0374,43.3269c-2.9564,47.3022-1.3661,95.7421,11.284,141.6558 c1.1679,4.2412,2.5017,8.4106,3.911,12.5461C167.799,1358.8082,92.9536,1366.089,61.5427,1318.9208z M294.1331,1445.1154 c-34.4615-37.5748-58.088-80.5771-67.7365-130.7357c-9.4559-49.155-6.8259-99.9325-2.5092-149.4835 c3.6979-42.4609,10.2275-84.609,16.8988-126.6813c8.4768-53.4679,19.6381-106.6337,34.4578-158.7129 c1.6319-5.7355,3.3488-11.4427,5.0883-17.1384c6.6976,11.1368,17.5912,20.2305,27.4244,27.981 c18.3534,14.4611,35.6332,28.6204,52.2358,45.1702c17.2176,17.1629,33.9221,34.854,52.5189,50.5604 c18.9817,16.031,39.8649,28.4584,62.7803,37.9935c27.7884,11.5634,58.3616,17.7139,87.6802,24.0133 c29.5903,6.358,59.2693,12.301,88.3352,20.8306c25.183,7.39,48.3076,20.2797,72.0776,31.2335 c-7.3391,4.1188-14.3121,8.9467-20.8947,14.4669c-10.8632,5.443-20.806,12.6803-30.7316,19.7948 c-1.164,0.834-2.0037,1.9149-2.6037,3.1036c-2.3846,1.4716-4.7448,2.9941-7.0428,4.6467 c-0.9999,0.7189-1.7753,1.5471-2.3658,2.4319c-37.3141,27.6809-67.5912,61.7787-91.567,101.8568 c-10.0068,16.729-18.1024,35.1371-30.6505,50.2058c-10.501,12.6102-24.4378,17.4741-40.2744,19.9852 c-34.405,5.4601-71.7267-2.6809-103.0585,16.3649c-38.2349,23.2417-52.1452,76.9207-55.7827,118.2252 c-1.2623,14.3273-0.2473,28.7922,4.8675,42.2424C326.1817,1477.9883,309.6094,1461.9894,294.1331,1445.1154z M1001.7625,1433.4218 c-3.6695,43.1949-11.7388,88.5143-37.0029,124.7474c-12.3047,17.6478-29.7261,31.6393-50.119,38.569 c-21.4136,7.2769-44.9345,7.0995-67.1724,4.8468c-24.8605-2.5205-50.7529-8.422-74.2155-18.9063 c-0.5828-0.4432-1.2488-0.8469-2.0167-1.1923c-15.8442-7.1165-28.3923-21.3098-39.5631-34.1843 c-13.6744-15.7592-23.8115-33.3145-32.7637-52.0981c-23.038-48.3379-34.7843-100.6134-34.805-154.0698 c-0.0151-37.3766,2.4244-74.0192,14.2631-109.6166c6.6901-20.1117,19.2081-52.3357,41.0347-62.8312 c0.2944,0.0887,0.585,0.181,0.9057,0.236c6.0768,1.0206,13.1309,1.8544,18.1119,5.8711c1.3583,1.0942,2.9601,1.5621,4.5278,1.5432 c1.6547,2.4791,3.1715,5.0978,4.5356,7.8409c0.1132,0.5566,0.2281,1.1132,0.3377,1.6678c0.2736,1.3829,0.9526,2.3754,1.8337,3.0508 c4.3092,10.0935,7.1071,21.2437,9.3691,31.5355c1.6773,16.2628,4.5526,32.4352,7.2787,48.5189 c1.2,7.0845,2.5677,14.2368,3.7638,21.4268c1.1678,11.686,2.1207,23.3945,3.032,35.0862c0.3547,4.5488,6.8334,4.5996,7.1012,0 c2.0434-35.1295-9.1842-70.7439-12.8537-105.4961c-1.7432-16.5214-3.0413-38.1879,2.981-54.5959 c1.1829-0.249,2.3564-0.849,3.4185-1.8887c9.2107-9.0238,17.2706-18.6118,30.3714-21.5454 c1.5585-0.2717,2.7054-0.9379,3.5055-1.8226c12.301-1.4451,25.2811-0.6849,33.4146-0.183 c32.3145,1.9961,55.0958,26.3811,70.2571,52.9037c2.2866,8.7673,3.7827,17.8269,5.0223,26.517 c3.9732,27.8715,2.3488,56.3374,6.7448,84.1051c0.7981,5.0375,8.7146,3.6903,8.6993-1.1772 c-0.0717-23.1455-1.5148-46.2456-1.1281-69.4082c0.2075-12.533,0.6188-25.3717,3.4676-37.6255 c0.6132-2.6356,1.2886-4.9978,2.181-6.6958c9.9578,2.864,20.2948,16.1895,25.9057,22.6927 c4.9958,5.792,9.5822,11.9274,13.9762,18.1949c12.3596,23.2719,20.674,47.9548,29.6959,72.5134 c0.1359,2.9905,0.2585,5.979,0.353,8.9597C1007.5112,1351.639,1005.2095,1392.8417,1001.7625,1433.4218z M1008.381,1238.4115 c0.334,2.9073-0.4886,5.1147-1.947,6.6449c-0.8226-1.2321-1.6358-2.4227-2.3206-3.5376 c-3.3846-5.5033-6.9316-10.9031-10.5746-16.2385c-8.2749-12.1178-17.2234-23.998-27.6472-34.3579 c-8.4126-8.3557-18.2344-16.3855-30.3656-17.64c-5.0827-0.5245-9.3994,0.6659-12.9518,3.0393 c-1.0529-0.217-2.0566-0.5168-2.9829-0.9301c-18.0477-27.4773-44.0873-48.421-78.5546-50.6227 c-11.535-0.7378-25.7925,0.3074-39.2198,3.9297c-0.4283,0.0059-0.8622,0.0304-1.3187,0.1152 c-6.3468,1.1924-11.718,3.5828-16.5743,6.7241c-2.1658,1.1338-4.2431,2.3677-6.2202,3.7035 c-11.3822,5.2278-22.189,11.6482-26.0811,23.0153c-3.9073-4.1677-8.4692-7.458-13.6783-9.7181 c-1.3301-2.1188-3.5242-3.5884-6.4731-3.3563c-34.0277,2.677-52.6017,36.9708-64.1406,65.114 c-15.248,37.1898-19.0909,76.0115-20.2814,115.8425c-1.7565,58.6295,8.6937,114.7501,32.3069,168.465 c9.2634,21.072,20.5173,40.3403,34.9862,58.2166c6.6787,8.254,14.0989,16.7949,22.304,24.3643 c-0.2451,0.3923-0.5036,0.7754-0.7925,1.1301c-0.0527,0.0868-0.0979,0.1791-0.1545,0.2642 c0.5773,4.2638-1.3811,8.7126-6.8127,9.9973c-26.9453,6.375-54.7696-0.1642-82.0336,1.8074 c-26.8697,1.9434-51.2774,15.4272-77.9924,18.2571c-0.6698,0.4604-1.4132,0.8643-2.2565,1.1869 c-9.5183,3.6299-18.6949,0.7866-28.0621-0.7679c-21.304,1.4547-42.8063-0.2943-62.8406-7.505 c-23.6324-8.5051-43.1026-22.9796-58.2675-41.8085c-1.5697-1.3639-3.1506-2.7147-4.7035-4.0958 c-0.7998-0.3604-1.5884-0.8263-2.3508-1.4357c-9.6653-7.7411-19.0985-15.5631-27.0471-25.1151 c-1.3941-1.6737-2.1545-3.4375-2.4317-5.1658c-4.2054-5.292-8.0428-10.8331-11.3314-16.6591 c-0.7111-0.9019-1.2244-1.8754-1.5622-2.8829c-1.0734-2.049-2.0998-4.1184-3.0262-6.2372 c-10.1446-23.2002-11.3897-47.0552-3.4525-71.1854c0.9453-2.8734,2.7735-4.7393,4.9355-5.7562 c2.6734-11.2444,7.1315-22.338,11.8746-32.9825c0.0753-0.1774,0.1565-0.3528,0.234-0.5302c0.0377-1.481,0.4169-3.0242,1.3168-4.575 c0.8019-1.3812,1.6603-2.6943,2.5471-3.9771c0.4395-0.9283,0.864-1.8604,1.3168-2.7848c1.1339-2.3131,2.7339-3.6979,4.4977-4.4017 c0.2888-0.3074,0.5641-0.6282,0.8566-0.9299c0.0019-0.0039,0.0056-0.0095,0.0075-0.0132c0.3962-1.568,1.3168-3.066,2.911-4.3375 c0.034-0.0264,0.0661-0.049,0.0981-0.0754c2.3716-2.9714,5.1979-5.4731,8.6183-7.2316c1.2376-0.6359,2.4563-0.9811,3.6355-1.1038 c3.2677-2.4487,6.9014-4.2373,11.1803-5.2373c1.1717-0.9169,2.5055-1.6414,3.9489-2.0546c1.0319-0.3923,2.1922-0.632,3.4978-0.6509 c0.1659-0.002,0.334-0.0114,0.5-0.015c4.5317-1.2755,9.4578-1.9772,14.9555-1.9169c1.2716,0.0131,2.4224,0.283,3.4582,0.7283 c5.0657-0.4888,10.1258-1.0453,15.1933-1.5283c14.18-3.4713,28.2281-7.4824,42.5346-10.4463 c0.1528-0.0321,0.3-0.0472,0.4529-0.0718c0.9395-0.7961,2.0658-1.4434,3.411-1.8602c7.0183-2.1735,14.231-3.6223,21.2513-5.7958 c0.9754-0.3018,1.8979-0.4019,2.7885-0.4114c2.7753-1.5111,5.5789-2.9827,8.4277-4.4109c0.5962-0.2981,1.1847-0.5262,1.7658-0.7075 c0.102-0.0717,0.2019-0.1396,0.3019-0.2113c5.2582-6.1296,10.5331-12.2445,15.9101-18.2665 c-0.0678-1.2228,0.1603-2.5697,0.766-4.0205c4.7355-11.3577,10.7748-22.1493,17.9139-32.162 c7.0295-17.693,17.6213-32.6351,30.0507-46.087c7.1126-10.037,15.7516-18.7931,25.0095-27.0208 c7.9542-13.448,20.4551-24.1152,33.5729-33.9974c24.236-25.0981,51.3396-47.9191,83.7335-58.7411 c1.0641-0.3546,2.0697-0.5206,3.0167-0.5376c1.5415-1.066,3.3621-1.7395,5.3469-1.7395h6.3429 c35.1937-11.1538,74.836-9.905,110.7711-0.6263c10.6992-3.6583,27.3226,6.0845,34.588,11.6047 c0.2113,0.1604,0.385,0.3472,0.5792,0.5189c28.4207,12.3744,54.7054,30.3883,73.6929,53.8733 c0.6378,0.6077,1.13,1.2434,1.5168,1.8979c12.335,15.7781,21.3795,33.9617,25.6472,54.4943 c0.1849,0.2924,0.3756,0.5753,0.5585,0.8698c1.7582,2.8168,1.8583,5.5656,0.949,7.8918 C1008.1376,1236.5568,1008.2733,1237.4775,1008.381,1238.4115z M727.7731,1112.515c0.602-0.3585,1.2264-0.6678,1.8338-1.0114 c0.0265,0.1322,0.0474,0.266,0.0794,0.3982c-0.549,0.4019-1.1075,0.7886-1.6357,1.2169 C727.9619,1112.9149,727.8751,1112.7112,727.7731,1112.515z M1019.2707,906.0981c-0.1849,17.6647-0.5622,35.3276-1.0187,52.9922 c-31.0788-43.2402-82.8997-74.5794-127.3738-97.2928c-36.2595-18.5156-74.2322-33.6937-112.5862-47.2626 c-34.254-12.1198-69.3268-24.3642-104.798-32.4127c-67.7742-15.3763-138.9049-10.2804-204.553-35.6163 c-21.3021-8.2219-40.5969-20.8267-59.5352-33.3825c-9.271-6.1486-18.5213-12.3348-27.5092-18.8929 c-3.2601-2.379-6.6957-4.4581-9.9842-6.7919c-1.413-1.0056-4.2959-1.6168-5.0505-3.3694c-0.8491-1.9716-3.515-0.7284-3.6564,0.9905 c-0.7,8.4597,13.2687,17.4214,18.6269,21.6172c13.8933,10.8766,28.3452,21.0042,43.0968,30.6789 c39.1066,25.6511,82.7901,37.1992,128.6605,44.0101c49.7888,7.39,99.2946,11.1483,147.525,26.4774 c34.8182,11.0651,69.3288,23.1057,103.2207,36.7634c48.1907,19.4231,95.7554,42.5251,137.8221,73.2663 c32.658,23.8642,61.6086,54.047,74.5021,92.6121c-0.1943,5.2638-0.4208,10.5256-0.6265,15.7876 c-0.881-0.5566-1.8073-1.051-2.7281-1.4885c-4.7844-2.2811-9.3691-4.9846-13.8593-7.7902 c-4.4412-2.7733-10.254-9.1087-15.9064-9.3728c-1.3321-0.7604-3.4035,0.2697-3.4149,1.9885 c-0.017,2.6715-0.8904,4.0959,1.5546,6.8561c3.0847,3.4808,6.9316,6.1712,10.7049,8.8446 c5.0807,3.5997,15.6141,12.3953,23.2267,11.5859c-0.1584,3.879-0.2962,7.7599-0.4623,11.6388 c-3.0864,1.462-4.2053,6.1619-0.5396,8.9067c0.0472,0.036,0.1001,0.0699,0.1472,0.104c-0.1414,3.2506-0.2981,6.4974-0.4434,9.7483 c-2.4261,4.1846-5.0638,8.239-7.3806,12.1764c-13.8877,23.6116-36.0275,31.9713-62.2143,33.4316 c-3.694,0.2056-5.6185,5.377-1.981,7.3125c25.5265,13.5859,51.9359,1.3151,69.976-17.8439 c-1.3887,29.3356-2.8658,58.707-3.8658,88.0879c-0.666,1.0415-0.783,2.4508-0.1076,3.462 c-0.2828,8.6106-0.5302,17.2231-0.7111,25.834c-4.9073-17.7081-11.6859-34.8447-21.0664-50.7832 c-17.5874-29.877-44.959-52.6338-76.8812-65.8386c-39.3444-16.2761-84.975-20.5775-127.2606-19.2797 c-9.6407,0.2963-18.8723,1.5621-27.6923,3.7263c-3.0753-1.0699-6.1279-2.1943-9.1522-3.3508 c-22.9984-8.7899-44.7515-20.6135-67.4875-30.0525c-25.8056-10.7163-53.8677-15.9611-81.1318-21.5436 c-29.7659-6.094-59.6618-11.6086-88.9992-19.5912c-26.5038-7.2108-50.3078-17.8589-73.0231-33.2938 c-20.0305-13.6083-37.6103-30.5808-55.2846-47.0268c-17.2591-16.0592-34.4182-31.4486-54.2451-44.2683 c-15.9064-10.2843-31.1335-20.4966-42.7271-35.0389c3.8073-12.3709,7.59-24.7417,10.7559-37.3163 c4.6223-18.357,9.1937-36.7198,14.8197-54.8016c10.467-33.6446,25.5678-72.7002,58.6089-90.0388 c0.2471-0.13,0.4565-0.2792,0.6584-0.4319c2.0245,1.4319,4.0488,2.8677,6.1146,4.245 c22.8455,15.2327,47.6533,23.468,74.8493,26.3679c27.481,2.9299,55.3412-0.3642,82.7486-2.5734 c28.7924-2.3226,57.6939-3.1695,86.5731-3.0771c59.4446,0.1904,118.9838,3.8619,178.2831-1.9998 c28.8619-2.8508,56.4807-9.2146,84.509-16.3386c25.8319-6.5655,51.7716-12.8518,76.7736-22.1983 c22.2719-8.3259,42.8932-19.1911,59.0919-36.8992c1.3282-1.4509,2.6037-2.9395,3.8583-4.4431 c-0.6207,6.275-0.749,12.1463-1.0697,15.6931c-2.8564,31.4996-3.0978,63.2803-3.0016,94.8837 c0.1149,37.7821,1.3527,75.551,2.1149,113.3238c-0.5358,0.0056-1.0736,0.0284-1.6038,0.002 c-0.8338-0.0416-1.1224,1.1508-0.4188,1.5471c0.7133,0.4019,1.3923,0.7717,2.0697,1.1414 C1019.2386,862.3635,1019.501,884.2297,1019.2707,906.0981z M1020.9159,1199.2596c18.1685,6.0222,39.0952,7.0825,56.2676-1.015 c-0.3491,7.1692-0.6414,14.3386-0.9056,21.5117c-0.2075,0.0753-0.4131,0.1395-0.6244,0.2471 c-18.8269,9.6332-38.6198,5.2412-55.4921-5.6731C1020.38,1209.3042,1020.629,1204.282,1020.9159,1199.2596z M1023.4516,1337.6306 c-0.434-6.2391-0.8793-12.4784-1.2792-18.7175c0.4283-0.9791,0.5413-2.1752,0.1548-3.5675c-0.1567-0.566-0.3302-1.1339-0.4907-1.7 c-1.2225-19.9099-2.1545-39.8254-2.3997-59.8088c-0.136-11.0369,0.0792-22.0437,0.481-33.0392 c15.3555,13.1614,37.0389,17.6328,56.0128,9.4597c-0.449,14.4801-0.7603,28.964-0.932,43.4459 c-0.2113,17.7987-0.2189,35.5974-0.0981,53.3923C1060.5261,1342.4058,1042.3822,1340.5436,1023.4516,1337.6306z M1024.1515,1347.8563c-0.0074-0.0942-0.0131-0.1887-0.0189-0.2831c17.7592,3.7657,36.4237,3.9885,50.9132-6.192 c0.0115,1.0341,0.0321,2.0697,0.0435,3.1056c-5.7316,5.1448-11.1632,10.8256-17.6099,15.063 c-9.839,6.4656-20.3873,8.5559-31.479,10.9275C1025.3381,1362.9231,1024.693,1355.3802,1024.1515,1347.8563z M1047.1198,1547.5625 c-6.3676-5.0713-9.7617-12.8575-11.9219-20.8268c0.5735-0.3378,1.1376-0.6925,1.7092-1.0338 c-1.1829-0.9001-2.1545-1.9264-2.8771-3.1527c-2.5394-2.447-3.6733-6.4863-2.7639-9.7936c0.1848-0.6698,0.447-1.2716,0.7415-1.8413 c-4.0131-26.6038-1.3433-53.9489-1.9414-80.7168c-0.4208-18.8252-2.1282-37.7388-3.7922-56.6017 c11.0258,2.8263,22.4587-1.0959,32.3959-6.2183c5.2278-2.696,11.1426-6.3448,16.5948-10.5635 c0.6001,43.2158,1.7075,86.4259,2.432,129.6415c-0.7377,0.5756-1.4772,1.1509-2.2169,1.7264 c1.8527,2.8413,2.2133,5.6731,1.8641,8.9484c0.1735-0.1359,0.3472-0.2679,0.5187-0.4038 c0.2454,16.3215,0.4227,32.6429,0.468,48.9662c0.0018,0.6509,0.0698,1.2566,0.1848,1.8282 C1068.486,1551.7451,1056.1528,1554.7562,1047.1198,1547.5625z M1081.5736,1135.8076c-1.5223,16.046-2.7015,32.1223-3.6355,48.2115 c-0.0245,0.0151-0.0471,0.0227-0.0717,0.0377c-18.0779,12.0314-36.8162,7.9052-56.3845,5.8186 c0.6433-10.0804,1.3695-20.1628,2.1149-30.2583c1.7337-23.4965,2.7958-47.0551,3.7733-70.6099 c1.3547,1.1377,2.7791,2.2188,4.4034,3.1488c4.5337,2.5979,9.6012,4.462,14.4404,6.4127 c11.9935,4.8373,24.6681,7.639,37.5972,7.9938c0.2906,0.0074,0.5586-0.0208,0.817-0.0583 C1083.5376,1116.2638,1082.502,1126.031,1081.5736,1135.8076z M1085.5376,1098.4821c-0.498-0.2245-1.0697-0.3622-1.7264-0.3717 c-12.2405-0.183-24.0132-3.0092-35.5916-6.8201c-4.7111-1.551-9.1957-3.5847-13.7991-5.411 c-2.162-0.8585-4.5072-1.4188-6.8391-2.0018c0.0623-1.5338,0.1263-3.0658,0.1886-4.5996c1.449-3.7732,2.5717-7.6221,3.5903-11.567 c17.2649,8.7144,37.5182,13.9951,56.0922,14.3744C1086.8036,1087.5508,1086.1659,1093.0145,1085.5376,1098.4821z M1088.8694,1070.2106c-11.467-0.7981-22.4492-2.3206-33.6089-5.6016c-7.3995-2.1733-14.2667-5.2788-21.0455-8.6239 c0.3319-1.3545,0.6698-2.7167,1.0302-4.0978c1.9469-7.4579,4.3033-16.6327,4.9447-25.5377 c2.6754-2.6754,4.2074-6.5674,3.249-11.2991c-2.5167-12.4351-6.8129-24.1265-12.4558-35.1521 c0.7546-38.0595,0.9264-76.1039,0.4603-114.171c8.9712,5.7864,21.4928,6.8259,31.7788,6.9938 c15.0651,0.2451,30.728-2.4451,44.5931-8.6748c-0.1396,2.2242-0.3076,4.4467-0.4529,6.6712 c-0.7528,3.2657-1.4395,6.5485-1.9885,9.8671c-1.3698,8.2729-1.4944,16.4234-0.3849,24.3115 c-2.4113,32.4957-5.2129,64.9424-8.407,97.2928C1094.3389,1024.8987,1091.588,1047.5537,1088.8694,1070.2106z M1095.5293,1172.9106 c3.8846-62.0671,13.235-123.672,19.0288-185.579c1.5167-16.2139,2.9073-32.441,4.1865-48.6757 c0.5076,0.7,1.0037,1.4019,1.5376,2.0904c9.1748,11.8314,21.0249,21.155,34.2938,27.9302c1.0243,1.6054,2.0413,3.2147,3.0278,4.841 c10.7615,17.729,18.7025,37.088,25.6587,56.5696c7.0259,19.6852,12.765,39.8197,18.1704,59.9993 c2.3639,8.824,4.36,17.8799,6.4957,26.8906c-13.3293,5.1372-26.3943,11.1859-38.3916,18.8154 c-6.5052,1.9961-13.7706,4.33-18.1345,8.7654c-22.9456,14.3386-35.3955,41.6046-44.5778,67.1707 c-5.5582,11.7821-10.3635,24.1493-14.2802,36.8331C1093.0503,1223.3372,1093.9521,1198.12,1095.5293,1172.9106z M1094.4954,1473.5659c-0.4791-30.9204-1.1545-61.8425-1.6848-92.7649c5.4884,12.5614,13.516,23.936,24.5228,33.3618 c4.0563,3.4733,8.3523,6.639,12.801,9.5936c2.2375,2.9564,4.5958,5.8127,7.3785,8.3201 c4.7562,4.2827,10.6803,7.0203,16.8121,9.2031C1132.8209,1447.8264,1111.9432,1460.6782,1094.4954,1473.5659z M1306.7025,1464.0233 c-6.0089-2.6544-12.0311-5.4486-18.2817-7.4921c-6.7919-2.2205-14.6573-2.8505-22.2267-3.3411 c-11.3727-1.6471-22.8927-2.7904-33.8767-5.3053c-7.9014-1.8094-15.7479-3.7771-23.5114-5.9825 c-9.1918-2.9055-18.261-6.0693-27.1171-9.1013c-4.4939-1.5377-9.2087-2.8904-13.8782-4.3958 c-0.0302-0.0189-0.0603-0.0304-0.0905-0.051l-8.6937-5.7958c-0.6433-0.4283-1.1887-0.8982-1.6868-1.3887 c-0.3999-0.1584-0.8018-0.3302-1.2112-0.5433c-6.0751-3.1733-11.7614-6.8768-17.2799-10.8313 c-3.0037-3.6997-5.9429-7.505-9.3787-10.6407c-0.2375-0.3187-0.462-0.6395-0.7545-0.947 c-35.4634-37.2916-35.6842-89.1011-23.3795-136.1788c11.7709-45.0343,34.8843-89.6444,75.6399-114.4445 c24.0454-14.6328,52.1432-23.2775,79.1356-30.609c28.2263-7.6655,57.0883-14.1838,85.8278-19.5986 c27.8376-5.2468,54.2018-2.2224,82.0562,0.4c11.7463,1.1055,23.3569,2.7527,34.6995,6.0901 c4.4789,1.317,8.5577,4.1583,12.3218,7.5919c-12.22-0.0736-24.853,3.0016-35.9617,7.2411 c-20.804,7.9371-43.4081,24.6584-46.5814,48.0039c-1.0094,0.5226-2.1055,0.8829-3.2488,1.0415 c-3.73-3.4299-8.92-5.3583-14.4442-5.1658c-10.7654,0.3737-21.3325,8.0863-27.5828,16.3838 c-18.1895,24.1396-27.3452,56.7014-36.7466,85.0541c-12.0142,36.2277-12.467,74.9001-8.6616,112.5051 c1.7433,17.2212,4.4034,34.1918,5.3771,51.4905c0.7413,13.2028,2.2223,27.4132,7.7729,39.6652 C1312.189,1466.4646,1309.4476,1465.2365,1306.7025,1464.0233z M1542.4666,1307.5121 c-9.5013,34.8767-22.655,68.9005-39.303,100.9851c-21.8474,42.1044-66.3497,114.4558-124.006,92.5347 c-13.1613-5.0052-23.1246-14.5818-30.7769-26.2679c0.1357-0.3357,0.2245-0.6924,0.3226-1.0432 c-3.249-3.5638-5.7657-7.8279-7.1429-12.4387c-0.249-0.0623-0.502-0.1378-0.7454-0.1849 c-7.09-15.1178-11.4425-31.8956-14.4329-46.4172c-6.8693-33.3655-8.8993-69.2649-5.4033-103.1906 c3.5374-34.3466,12.6235-68.5084,26.7112-100.0248c4.2847-9.5863,9.1069-18.6874,14.4329-27.3887 c3.515-3.4677,7.8995-5.8223,12.6766-6.9768c5.4827-1.3225,8.0012,3.6752,11.0802,7.0901 c0.4584,0.5074,0.9811,0.8658,1.5339,1.1206c4.4355,9.2786,6.7523,20.6984,8.3711,27.6621 c4.6014,19.8137,6.7428,40.1272,8.8069,60.3314c0.3981,3.9017,6.609,5.5054,7.4012,1.0018 c4.0677-23.1285,0.1396-47.7701-0.4696-71.0627c-0.334-12.7388-0.4379-25.6754,1.3715-38.318 c0.7454-5.2052,1.783-12.2349,4.8713-17.3647c7.6165-6.2749,17.0668-10.8444,25.4473-13.782 c2.2582-0.7924,4.6449-1.4886,7.1107-2.0829c7.4465-1.1132,14.9404-1.5734,22.3928-1.2036 c0.5753,0.1074,1.1356,0.1453,1.6752,0.0981c1.6963,0.113,3.3885,0.2678,5.0791,0.4697 c6.9277,1.6733,13.2687,4.9298,18.1041,10.3408c0.5471,0.613,1.1472,1.0923,1.7679,1.5131 c1.1527,2.5564,2.1053,5.3146,2.7582,8.5577c1.7999,8.9391,1.6377,18.3383,1.1622,27.532 c-0.7074,2.4941-1.2734,4.8733-1.696,6.9977c-2.8527,14.3121-3.0546,28.7751-3.6073,43.2156 c-0.9246,7.9202-1.6338,15.8499-1.7319,23.804c-0.0792,6.4637,8.9182,5.9957,9.7198,0c1.2114-9.054,1.5736-18.2025,1.915-27.3583 c1.6132-14.1802,3.7601-28.3433,4.5205-42.5742c1.2225-4.8733,2.8433-9.6295,5.0939-14.0405 c3.8809-7.6071,8.7144-9.6371,16.199-9.8522c13.4272,15.463,21.1776,35.6277,22.1832,56.4601 C1557.354,1246.609,1550.5565,1277.8218,1542.4666,1307.5121z"/></g></svg>